<svg width="539" height="97" viewBox="0 0 539 97" fill="none" xmlns="http://www.w3.org/2000/svg">
<path opacity="0.06" d="M42.37 15.7L43.2369 17.5023L44.37 16.9573V15.7H42.37ZM32.1 20.64L30.445 19.517L26.2761 25.6607L32.9669 22.4423L32.1 20.64ZM34.57 17H36.57V10.4907L32.9151 15.877L34.57 17ZM34.57 81.35L32.9344 82.501L36.57 87.6674L36.57 81.35H34.57ZM32.1 77.84L32.8509 75.9863L26.5555 73.4363L30.4644 78.991L32.1 77.84ZM42.37 82H44.37V80.6523L43.1209 80.1463L42.37 82ZM42.37 95V97H44.37V95H42.37ZM0.12 95H-1.88L-1.88 97H0.12L0.12 95ZM0.12 82L-0.626934 80.1447L-1.88 80.6492L-1.88 82H0.12ZM10.13 77.97L11.8039 79.0645L15.2867 73.7379L9.38307 76.1147L10.13 77.97ZM7.92 81.35H5.92V88.0635L9.59394 82.4445L7.92 81.35ZM7.92 17L9.46079 15.7249L5.92 11.4464L5.92 17H7.92ZM11.04 20.77L10.2896 22.6239L12.5808 19.4949L11.04 20.77ZM0.12 16.35H-1.88L-1.88 17.6981L-0.630385 18.2039L0.12 16.35ZM0.12 3.34999L0.0892344 1.35023L-1.88 1.38053L-1.88 3.34999H0.12ZM42.37 2.7H44.37V0.668989L42.3392 0.700232L42.37 2.7ZM41.5031 13.8977L31.2331 18.8377L32.9669 22.4423L43.2369 17.5023L41.5031 13.8977ZM33.755 21.763L36.225 18.123L32.9151 15.877L30.445 19.517L33.755 21.763ZM32.57 17L32.57 81.35H36.57L36.57 17H32.57ZM36.2056 80.199L33.7356 76.689L30.4644 78.991L32.9344 82.501L36.2056 80.199ZM31.3491 79.6937L41.6191 83.8537L43.1209 80.1463L32.8509 75.9863L31.3491 79.6937ZM40.37 82L40.37 95L44.37 95L44.37 82L40.37 82ZM42.37 93L0.12 93L0.12 97L42.37 97V93ZM2.12 95L2.12 82H-1.88L-1.88 95H2.12ZM0.866934 83.8553L10.8769 79.8253L9.38307 76.1147L-0.626934 80.1447L0.866934 83.8553ZM8.45606 76.8755L6.24606 80.2555L9.59394 82.4445L11.8039 79.0645L8.45606 76.8755ZM9.92 81.35L9.92 17H5.92L5.92 81.35H9.92ZM6.37921 18.2751L9.49921 22.0451L12.5808 19.4949L9.46079 15.7249L6.37921 18.2751ZM11.7904 18.9161L0.870385 14.4961L-0.630385 18.2039L10.2896 22.6239L11.7904 18.9161ZM2.12 16.35L2.12 3.34999H-1.88L-1.88 16.35H2.12ZM0.150766 5.34976L42.4008 4.69976L42.3392 0.700232L0.0892344 1.35023L0.150766 5.34976ZM40.37 2.7V15.7H44.37V2.7H40.37ZM75.5748 95H73.5748V97H75.5748V95ZM75.5748 82L74.9424 80.1026L73.5748 80.5585V82H75.5748ZM89.2248 77.45L90.8633 78.5969L94.334 73.6388L88.5924 75.5526L89.2248 77.45ZM84.6748 83.95H82.6748V90.2947L86.3133 85.0969L84.6748 83.95ZM84.6748 17.65L85.8748 16.05L82.6748 13.65L82.6748 17.65H84.6748ZM89.8748 21.55V23.55H95.8748L91.0748 19.95L89.8748 21.55ZM72.3248 21.55L71.0176 20.0364L66.9492 23.55H72.3248V21.55ZM78.0448 16.61L79.9833 17.1023L81.5478 10.9421L76.7376 15.0963L78.0448 16.61ZM73.8848 32.99V34.99H75.4404L75.8233 33.4823L73.8848 32.99ZM58.2848 32.99H56.2848V34.99H58.2848V32.99ZM58.2848 2.7V0.699995H56.2848V2.7H58.2848ZM137.715 2.7H139.715V0.699995H137.715V2.7ZM137.715 32.99V34.99H139.715V32.99H137.715ZM122.115 32.99L120.177 33.4828L120.56 34.99H122.115V32.99ZM118.215 17.65L119.377 16.0225L114.93 12.8457L116.277 18.1428L118.215 17.65ZM123.675 21.55V23.55H129.916L124.837 19.9225L123.675 21.55ZM106.125 21.55L104.925 19.95L100.125 23.55H106.125V21.55ZM111.325 17.65H113.325L113.325 13.65L110.125 16.05L111.325 17.65ZM111.325 83.95L109.656 85.0517L113.325 90.6111V83.95H111.325ZM107.035 77.45L107.678 75.5563L102.149 73.6773L105.366 78.5517L107.035 77.45ZM120.425 82H122.425V80.5673L121.068 80.1063L120.425 82ZM120.425 95V97H122.425V95H120.425ZM77.5748 95V82H73.5748V95H77.5748ZM76.2073 83.8974L89.8573 79.3474L88.5924 75.5526L74.9424 80.1026L76.2073 83.8974ZM87.5864 76.3031L83.0364 82.8031L86.3133 85.0969L90.8633 78.5969L87.5864 76.3031ZM86.6748 83.95V17.65H82.6748V83.95H86.6748ZM83.4748 19.25L88.6748 23.15L91.0748 19.95L85.8748 16.05L83.4748 19.25ZM89.8748 19.55H72.3248V23.55H89.8748V19.55ZM73.6321 23.0636L79.3521 18.1236L76.7376 15.0963L71.0176 20.0364L73.6321 23.0636ZM76.1064 16.1177L71.9464 32.4977L75.8233 33.4823L79.9833 17.1023L76.1064 16.1177ZM73.8848 30.99L58.2848 30.99V34.99L73.8848 34.99V30.99ZM60.2848 32.99V2.7H56.2848V32.99H60.2848ZM58.2848 4.7L137.715 4.7V0.699995L58.2848 0.699995V4.7ZM135.715 2.7V32.99H139.715V2.7H135.715ZM137.715 30.99H122.115V34.99H137.715V30.99ZM124.053 32.4972L120.153 17.1572L116.277 18.1428L120.177 33.4828L124.053 32.4972ZM117.052 19.2775L122.512 23.1775L124.837 19.9225L119.377 16.0225L117.052 19.2775ZM123.675 19.55L106.125 19.55V23.55L123.675 23.55V19.55ZM107.325 23.15L112.525 19.25L110.125 16.05L104.925 19.95L107.325 23.15ZM109.325 17.65V83.95H113.325V17.65H109.325ZM112.994 82.8483L108.704 76.3483L105.366 78.5517L109.656 85.0517L112.994 82.8483ZM106.391 79.3437L119.781 83.8937L121.068 80.1063L107.678 75.5563L106.391 79.3437ZM118.425 82V95H122.425V82H118.425ZM120.425 93H75.5748V97H120.425V93ZM195.831 15.7L196.698 17.5023L197.831 16.9573V15.7H195.831ZM185.561 20.64L183.906 19.517L179.737 25.6607L186.428 22.4423L185.561 20.64ZM188.031 17H190.031V10.4907L186.376 15.877L188.031 17ZM188.031 81.35L186.395 82.501L190.031 87.6674V81.35H188.031ZM185.561 77.84L186.312 75.9863L180.016 73.4363L183.925 78.991L185.561 77.84ZM195.831 82H197.831V80.6523L196.582 80.1463L195.831 82ZM195.831 95V97H197.831V95H195.831ZM153.581 95H151.581V97H153.581V95ZM153.581 82L152.834 80.1447L151.581 80.6492V82H153.581ZM163.591 77.97L165.265 79.0645L168.748 73.7379L162.844 76.1147L163.591 77.97ZM161.381 81.35H159.381V88.0635L163.055 82.4445L161.381 81.35ZM161.381 17L162.922 15.7249L159.381 11.4464V17H161.381ZM164.501 20.77L163.751 22.6239L166.042 19.4949L164.501 20.77ZM153.581 16.35L151.581 16.35V17.6981L152.831 18.2039L153.581 16.35ZM153.581 3.34999L153.55 1.35023L151.581 1.38053V3.34999H153.581ZM195.831 2.7H197.831V0.668989L195.8 0.700232L195.831 2.7ZM194.964 13.8977L184.694 18.8377L186.428 22.4423L196.698 17.5023L194.964 13.8977ZM187.216 21.763L189.686 18.123L186.376 15.877L183.906 19.517L187.216 21.763ZM186.031 17L186.031 81.35H190.031L190.031 17H186.031ZM189.667 80.199L187.197 76.689L183.925 78.991L186.395 82.501L189.667 80.199ZM184.81 79.6937L195.08 83.8537L196.582 80.1463L186.312 75.9863L184.81 79.6937ZM193.831 82V95H197.831V82H193.831ZM195.831 93H153.581V97H195.831V93ZM155.581 95V82H151.581V95H155.581ZM154.328 83.8553L164.338 79.8253L162.844 76.1147L152.834 80.1447L154.328 83.8553ZM161.917 76.8755L159.707 80.2555L163.055 82.4445L165.265 79.0645L161.917 76.8755ZM163.381 81.35L163.381 17H159.381L159.381 81.35H163.381ZM159.84 18.2751L162.96 22.0451L166.042 19.4949L162.922 15.7249L159.84 18.2751ZM165.251 18.9161L154.331 14.4961L152.831 18.2039L163.751 22.6239L165.251 18.9161ZM155.581 16.35V3.34999H151.581V16.35L155.581 16.35ZM153.612 5.34976L195.862 4.69976L195.8 0.700232L153.55 1.35023L153.612 5.34976ZM193.831 2.7V15.7L197.831 15.7V2.7H193.831ZM215.077 95H213.077V97H215.077V95ZM215.077 82L214.326 80.1463L213.077 80.6523V82H215.077ZM225.347 77.84L226.983 78.991L230.892 73.4363L224.596 75.9863L225.347 77.84ZM222.877 81.35H220.877V87.6674L224.513 82.501L222.877 81.35ZM222.877 15.7L224.521 14.5616L220.877 9.29747V15.7H222.877ZM226.387 20.77L225.659 22.6328L231.76 25.017L228.031 19.6316L226.387 20.77ZM215.077 16.35H213.077V17.7157L214.349 18.2128L215.077 16.35ZM215.077 3.34999L215.039 1.35036L213.077 1.38809V3.34999H215.077ZM248.877 2.7V0.699995H248.858L248.839 0.700365L248.877 2.7ZM283.197 2.7L285.197 2.69024L285.187 0.699995H283.197V2.7ZM283.327 29.35V31.35L285.337 31.35L285.327 29.3402L283.327 29.35ZM267.727 29.35L265.8 29.8865L266.208 31.35H267.727V29.35ZM264.867 19.08L265.821 17.3223L261.675 15.0712L262.94 19.6165L264.867 19.08ZM269.417 21.55V23.55L270.371 19.7923L269.417 21.55ZM245.627 21.55L244.213 20.1358L240.799 23.55H245.627V21.55ZM249.527 17.65H251.527V12.8216L248.113 16.2358L249.527 17.65ZM249.527 42.61L248.189 44.0966L251.527 47.1007V42.61H249.527ZM245.627 39.1V37.1H240.415L244.289 40.5866L245.627 39.1ZM272.927 39.1H274.927V37.1H272.927V39.1ZM272.927 57.95V59.95H274.927V57.95H272.927ZM245.627 57.95L244.213 56.5358L240.799 59.95H245.627V57.95ZM249.527 54.05H251.527V49.2216L248.113 52.6358L249.527 54.05ZM249.527 81.35L248.005 82.6469L251.527 86.782V81.35H249.527ZM246.537 77.84L247.158 75.9388L240.415 73.7369L245.015 79.1369L246.537 77.84ZM259.277 82H261.277V80.5491L259.898 80.0988L259.277 82ZM259.277 95V97H261.277V95H259.277ZM217.077 95V82H213.077V95H217.077ZM215.828 83.8537L226.098 79.6937L224.596 75.9863L214.326 80.1463L215.828 83.8537ZM223.711 76.689L221.241 80.199L224.513 82.501L226.983 78.991L223.711 76.689ZM224.877 81.35L224.877 15.7H220.877L220.877 81.35H224.877ZM221.233 16.8384L224.743 21.9084L228.031 19.6316L224.521 14.5616L221.233 16.8384ZM227.115 18.9072L215.805 14.4872L214.349 18.2128L225.659 22.6328L227.115 18.9072ZM217.077 16.35V3.34999H213.077V16.35H217.077ZM215.115 5.34962L248.915 4.69963L248.839 0.700365L215.039 1.35036L215.115 5.34962ZM248.877 4.7L283.197 4.7V0.699995L248.877 0.699995V4.7ZM281.197 2.70975L281.327 29.3598L285.327 29.3402L285.197 2.69024L281.197 2.70975ZM283.327 27.35H267.727V31.35H283.327V27.35ZM269.654 28.8135L266.794 18.5434L262.94 19.6165L265.8 29.8865L269.654 28.8135ZM263.913 20.8377L268.463 23.3077L270.371 19.7923L265.821 17.3223L263.913 20.8377ZM269.417 19.55H245.627V23.55H269.417V19.55ZM247.041 22.9642L250.941 19.0642L248.113 16.2358L244.213 20.1358L247.041 22.9642ZM247.527 17.65V42.61H251.527V17.65H247.527ZM250.865 41.1234L246.965 37.6134L244.289 40.5866L248.189 44.0966L250.865 41.1234ZM245.627 41.1H272.927V37.1H245.627V41.1ZM270.927 39.1V57.95H274.927V39.1H270.927ZM272.927 55.95H245.627V59.95H272.927V55.95ZM247.041 59.3642L250.941 55.4642L248.113 52.6358L244.213 56.5358L247.041 59.3642ZM247.527 54.05L247.527 81.35H251.527L251.527 54.05H247.527ZM251.05 80.0531L248.06 76.5431L245.015 79.1369L248.005 82.6469L251.05 80.0531ZM245.916 79.7412L258.656 83.9012L259.898 80.0988L247.158 75.9388L245.916 79.7412ZM257.277 82V95H261.277V82H257.277ZM259.277 93L215.077 93V97L259.277 97V93ZM341.04 15.7L341.907 17.5023L343.04 16.9573V15.7H341.04ZM330.77 20.64L329.115 19.517L324.946 25.6607L331.637 22.4423L330.77 20.64ZM333.24 17H335.24V10.4907L331.585 15.877L333.24 17ZM333.24 81.35L331.604 82.501L335.24 87.6674V81.35H333.24ZM330.77 77.84L331.521 75.9863L325.225 73.4363L329.134 78.991L330.77 77.84ZM341.04 82H343.04V80.6523L341.791 80.1463L341.04 82ZM341.04 95V97H343.04V95H341.04ZM298.79 95H296.79V97H298.79V95ZM298.79 82L298.043 80.1447L296.79 80.6492V82H298.79ZM308.8 77.97L310.474 79.0645L313.957 73.7379L308.053 76.1147L308.8 77.97ZM306.59 81.35L304.59 81.35V88.0635L308.264 82.4445L306.59 81.35ZM306.59 17L308.131 15.7249L304.59 11.4464V17H306.59ZM309.71 20.77L308.96 22.6239L311.251 19.4949L309.71 20.77ZM298.79 16.35H296.79V17.6981L298.04 18.2039L298.79 16.35ZM298.79 3.34999L298.759 1.35023L296.79 1.38053V3.34999H298.79ZM341.04 2.7H343.04V0.668989L341.009 0.700232L341.04 2.7ZM340.173 13.8977L329.903 18.8377L331.637 22.4423L341.907 17.5023L340.173 13.8977ZM332.425 21.763L334.895 18.123L331.585 15.877L329.115 19.517L332.425 21.763ZM331.24 17V81.35H335.24V17H331.24ZM334.876 80.199L332.406 76.689L329.134 78.991L331.604 82.501L334.876 80.199ZM330.019 79.6937L340.289 83.8537L341.791 80.1463L331.521 75.9863L330.019 79.6937ZM339.04 82V95H343.04V82H339.04ZM341.04 93L298.79 93V97L341.04 97V93ZM300.79 95V82H296.79V95H300.79ZM299.537 83.8553L309.547 79.8253L308.053 76.1147L298.043 80.1447L299.537 83.8553ZM307.126 76.8755L304.916 80.2555L308.264 82.4445L310.474 79.0645L307.126 76.8755ZM308.59 81.35V17H304.59V81.35L308.59 81.35ZM305.049 18.2751L308.169 22.0451L311.251 19.4949L308.131 15.7249L305.049 18.2751ZM310.46 18.9161L299.54 14.4961L298.04 18.2039L308.96 22.6239L310.46 18.9161ZM300.79 16.35V3.34999H296.79V16.35H300.79ZM298.821 5.34976L341.071 4.69976L341.009 0.700232L298.759 1.35023L298.821 5.34976ZM339.04 2.7V15.7H343.04V2.7L339.04 2.7ZM380.176 91.75L379.165 93.4758L379.18 93.4843L379.194 93.4925L380.176 91.75ZM365.486 75.89L363.706 76.8018L363.713 76.8148L363.72 76.8278L365.486 75.89ZM365.356 23.24L363.559 22.3627L365.356 23.24ZM380.436 6.6L381.448 8.32505L381.457 8.32006L381.465 8.31498L380.436 6.6ZM418.136 2.57L417.651 4.51028L417.667 4.51438L417.684 4.51819L418.136 2.57ZM433.996 7.77L435.993 7.87822L436.07 6.45759L434.753 5.91891L433.996 7.77ZM432.566 34.16V36.16H434.461L434.563 34.2682L432.566 34.16ZM416.966 34.16L415.04 34.698L415.448 36.16L416.966 36.16V34.16ZM412.936 19.73L414.259 18.2303L409.192 13.7592L411.01 20.268L412.936 19.73ZM417.356 23.63L416.647 25.5L418.679 22.1303L417.356 23.63ZM410.466 21.55L410.041 23.5044L410.05 23.5062L410.058 23.508L410.466 21.55ZM395.386 23.89L394.089 22.3675L395.386 23.89ZM390.186 32.6L388.268 32.0333L388.264 32.0478L388.26 32.0624L390.186 32.6ZM390.836 63.15L388.939 63.7825L388.946 63.805L388.954 63.8274L390.836 63.15ZM397.336 72.77L396.136 74.37L396.152 74.3822L396.169 74.394L397.336 72.77ZM415.926 74.07L416.589 75.9569L416.611 75.949L416.634 75.9406L415.926 74.07ZM425.936 68.74L427.629 67.6748L426.529 65.9269L424.817 67.0823L425.936 68.74ZM435.426 83.82L436.649 85.4026L438.086 84.292L437.119 82.7548L435.426 83.82ZM417.876 93.7L417.195 91.8196L417.876 93.7ZM400.326 94.95C393.379 94.95 387.002 93.3 381.158 90.0075L379.194 93.4925C385.657 97.1333 392.713 98.95 400.326 98.95V94.95ZM381.187 90.0242C375.481 86.682 370.829 81.6884 367.253 74.9522L363.72 76.8278C367.597 84.1316 372.738 89.7113 379.165 93.4758L381.187 90.0242ZM367.266 74.9782C363.81 68.2301 362.026 59.725 362.026 49.37H358.026C358.026 60.1617 359.882 69.3365 363.706 76.8018L367.266 74.9782ZM362.026 49.37C362.026 39.4594 363.763 31.0641 367.153 24.1173L363.559 22.3627C359.843 29.9759 358.026 39.0006 358.026 49.37H362.026ZM367.153 24.1173C370.548 17.1632 375.313 11.9241 381.448 8.32505L379.424 4.87495C372.559 8.90253 367.271 14.7568 363.559 22.3627L367.153 24.1173ZM381.465 8.31498C387.603 4.63233 394.947 2.75 403.576 2.75V-1.25C394.352 -1.25 386.269 0.767668 379.407 4.88501L381.465 8.31498ZM403.576 2.75C408.261 2.75 412.951 3.33538 417.651 4.51028L418.621 0.629711C413.614 -0.622057 408.598 -1.25 403.576 -1.25V2.75ZM417.684 4.51819C422.412 5.61576 427.595 7.31236 433.239 9.62109L434.753 5.91891C428.957 3.54763 423.567 1.77757 418.588 0.621803L417.684 4.51819ZM431.999 7.66179L430.569 34.0518L434.563 34.2682L435.993 7.87822L431.999 7.66179ZM432.566 32.16H416.966V36.16H432.566V32.16ZM418.892 33.622L414.862 19.192L411.01 20.268L415.04 34.698L418.892 33.622ZM411.613 21.2297L416.033 25.1297L418.679 22.1303L414.259 18.2303L411.613 21.2297ZM418.065 21.76C415.478 20.7788 413.079 20.0515 410.874 19.592L410.058 23.508C412.013 23.9152 414.207 24.5746 416.647 25.5L418.065 21.76ZM410.891 19.5956C408.774 19.1356 406.725 18.9 404.746 18.9V22.9C406.407 22.9 408.171 23.0978 410.041 23.5044L410.891 19.5956ZM404.746 18.9C400.502 18.9 396.88 19.9904 394.089 22.3675L396.683 25.4125C398.572 23.8029 401.19 22.9 404.746 22.9V18.9ZM394.089 22.3675C391.378 24.6767 389.473 27.9558 388.268 32.0333L392.104 33.1667C393.153 29.6175 394.714 27.09 396.683 25.4125L394.089 22.3675ZM388.26 32.0624C387.156 36.0172 386.626 40.7598 386.626 46.25H390.626C390.626 40.9935 391.136 36.6362 392.112 33.1376L388.26 32.0624ZM386.626 46.25C386.626 53.2204 387.374 59.087 388.939 63.7825L392.733 62.5175C391.352 58.373 390.626 52.9729 390.626 46.25H386.626ZM388.954 63.8274C390.604 68.41 392.963 71.9901 396.136 74.37L398.536 71.17C396.163 69.3899 394.188 66.5567 392.718 62.4726L388.954 63.8274ZM396.169 74.394C399.305 76.6483 402.926 77.76 406.956 77.76V73.76C403.706 73.76 400.914 72.8783 398.503 71.146L396.169 74.394ZM406.956 77.76C410 77.76 413.216 77.1422 416.589 75.9569L415.263 72.1831C412.223 73.2512 409.459 73.76 406.956 73.76V77.76ZM416.634 75.9406C420.013 74.662 423.487 72.8061 427.055 70.3977L424.817 67.0823C421.452 69.3539 418.253 71.0513 415.218 72.1994L416.634 75.9406ZM424.243 69.8052L433.733 84.8852L437.119 82.7548L427.629 67.6748L424.243 69.8052ZM434.203 82.2374C428.625 86.5477 422.955 89.7325 417.195 91.8196L418.557 95.5804C424.757 93.3342 430.787 89.9323 436.649 85.4026L434.203 82.2374ZM417.195 91.8196C411.409 93.916 405.789 94.95 400.326 94.95V98.95C406.303 98.95 412.383 97.8174 418.557 95.5804L417.195 91.8196ZM469.698 91.62L468.68 93.3414L468.694 93.3498L468.709 93.358L469.698 91.62ZM455.658 75.76L453.831 76.5723L453.837 76.586L453.843 76.5996L455.658 75.76ZM453.968 28.83L452.071 28.1975L452.068 28.2056L452.066 28.2136L453.968 28.83ZM462.938 13.23L464.397 14.5979L462.938 13.23ZM476.978 3.87L476.276 1.99731L476.266 2.00102L476.978 3.87ZM514.288 3.87L513.556 5.73116L513.566 5.73513L514.288 3.87ZM527.678 12.97L526.185 14.3007L526.201 14.3179L526.216 14.3346L527.678 12.97ZM535.868 27.4L533.962 28.0064L533.967 28.0195L533.971 28.0324L535.868 27.4ZM533.138 73.55L531.345 72.6638L531.341 72.6723L533.138 73.55ZM517.408 90.84L518.431 92.5588L517.408 90.84ZM502.848 74.46L501.739 72.7959L501.724 72.8056L501.71 72.8156L502.848 74.46ZM508.178 65.88L506.269 65.2834L506.264 65.3017L506.258 65.32L508.178 65.88ZM508.438 31.56L506.503 32.0648L506.51 32.09L506.517 32.1151L508.438 31.56ZM486.338 23.24L487.433 24.9139L487.455 24.8994L487.477 24.8844L486.338 23.24ZM481.268 31.56L479.341 31.0268V31.0268L481.268 31.56ZM481.008 65.62L479.063 66.0851L479.068 66.105L479.073 66.1248L481.008 65.62ZM485.818 74.2L487.068 72.6383L485.818 74.2ZM492.578 94.95C483.825 94.95 476.559 93.2251 470.688 89.882L468.709 93.358C475.318 97.1216 483.305 98.95 492.578 98.95V94.95ZM470.717 89.8986C464.936 86.4794 460.522 81.5124 457.474 74.9204L453.843 76.5996C457.208 83.8743 462.153 89.4806 468.68 93.3414L470.717 89.8986ZM457.486 74.9477C454.508 68.2474 452.978 60.0465 452.978 50.28H448.978C448.978 60.4468 450.569 69.2326 453.831 76.5723L457.486 74.9477ZM452.978 50.28C452.978 42.2908 453.956 35.3567 455.871 29.4464L452.066 28.2136C449.994 34.61 448.978 41.9758 448.978 50.28H452.978ZM455.866 29.4625C457.868 23.4545 460.723 18.5173 464.397 14.5979L461.479 11.8621C457.354 16.2627 454.228 21.7255 452.071 28.1975L455.866 29.4625ZM464.397 14.5979C468.084 10.665 472.507 7.71359 477.69 5.73897L476.266 2.00102C470.53 4.1864 465.592 7.47495 461.479 11.8621L464.397 14.5979ZM477.681 5.74265C482.965 3.76085 489.005 2.75 495.828 2.75V-1.25C488.612 -1.25 482.085 -0.180862 476.276 1.99734L477.681 5.74265ZM495.828 2.75C502.655 2.75 508.55 3.76171 513.556 5.73113L515.021 2.00886C509.453 -0.181711 503.042 -1.25 495.828 -1.25V2.75ZM513.566 5.73513C518.668 7.70989 522.859 10.5692 526.185 14.3007L529.171 11.6393C525.391 7.39745 520.655 4.1901 515.01 2.00486L513.566 5.73513ZM526.216 14.3346C529.63 17.9922 532.221 22.5334 533.962 28.0064L537.774 26.7936C535.876 20.8266 533.007 15.7478 529.14 11.6054L526.216 14.3346ZM533.971 28.0324C535.797 33.5113 536.728 39.7918 536.728 46.9H540.728C540.728 39.4482 539.753 32.7287 537.766 26.7675L533.971 28.0324ZM536.728 46.9C536.728 56.8847 534.91 65.4525 531.345 72.6638L534.931 74.4362C538.82 66.5675 540.728 57.3687 540.728 46.9H536.728ZM531.341 72.6723C527.865 79.7911 522.884 85.2554 516.386 89.1212L518.431 92.5588C525.626 88.278 531.132 82.2156 534.935 74.4277L531.341 72.6723ZM516.386 89.1212C509.91 92.9741 502.004 94.95 492.578 94.95V98.95C502.566 98.95 511.214 96.8526 518.431 92.5588L516.386 89.1212ZM494.528 78.8C498.145 78.8 501.336 77.9393 503.987 76.1044L501.71 72.8156C499.854 74.1007 497.498 74.8 494.528 74.8V78.8ZM503.958 76.1241C506.853 74.1941 508.821 70.8188 510.098 66.44L506.258 65.32C505.109 69.2612 503.524 71.6059 501.739 72.7959L503.958 76.1241ZM510.087 66.4765C511.477 62.028 512.128 55.8094 512.128 47.94H508.128C508.128 55.6706 507.479 61.4119 506.269 65.2834L510.087 66.4765ZM512.128 47.94C512.128 40.8476 511.563 35.1701 510.36 31.0049L506.517 32.1151C507.567 35.7499 508.128 40.9924 508.128 47.94H512.128ZM510.374 31.0551C509.271 26.8307 507.44 23.5362 504.637 21.5956L502.36 24.8844C504.063 26.0638 505.525 28.316 506.503 32.0648L510.374 31.0551ZM504.637 21.5956C501.955 19.739 498.574 18.9 494.658 18.9V22.9C498.023 22.9 500.535 23.621 502.36 24.8844L504.637 21.5956ZM494.658 18.9C491.042 18.9 487.85 19.7607 485.2 21.5956L487.477 24.8844C489.333 23.5993 491.688 22.9 494.658 22.9V18.9ZM485.244 21.5661C482.406 23.4213 480.527 26.739 479.341 31.0268L483.196 32.0932C484.263 28.2343 485.764 26.0053 487.433 24.9139L485.244 21.5661ZM479.341 31.0268C478.141 35.3628 477.578 41.5144 477.578 49.37H481.578C481.578 41.6256 482.142 35.9038 483.196 32.0932L479.341 31.0268ZM477.578 49.37C477.578 56.2839 478.057 61.8785 479.063 66.0851L482.953 65.1549C482.053 61.3881 481.578 56.1494 481.578 49.37H477.578ZM479.073 66.1248C480.172 70.3357 481.938 73.6568 484.569 75.7617L487.068 72.6383C485.365 71.2765 483.925 68.8777 482.944 65.1152L479.073 66.1248ZM484.569 75.7617C487.187 77.8566 490.577 78.8 494.528 78.8V74.8C491.2 74.8 488.782 74.0101 487.068 72.6383L484.569 75.7617Z" fill="#23262D"/>
</svg>
