<svg width="31" height="43" viewBox="0 0 31 43" fill="none" xmlns="http://www.w3.org/2000/svg">
<path d="M31 14.1647C31 9.10402 28.0456 4.4273 23.2499 1.89788C18.4545 -0.632627 12.5453 -0.632627 7.7501 1.89788C2.95425 4.42802 0 9.1043 0 14.1647V28.8353C0 33.896 2.95435 38.5727 7.7501 41.1021C12.5455 43.6326 18.4547 43.6326 23.2499 41.1021C28.0457 38.572 31 33.8957 31 28.8353V14.1647ZM28.7859 28.8353H28.7856C28.7856 33.1729 26.2537 37.1812 22.1429 39.3496C18.0325 41.5184 12.9679 41.5184 8.85734 39.3496C4.74653 37.1808 2.21466 33.1725 2.21466 28.8353V14.1647C2.21466 9.82708 4.74653 5.81876 8.85734 3.65041C12.9677 1.48161 18.0323 1.48161 22.1429 3.65041C26.2537 5.81921 28.7856 9.82753 28.7856 14.1647L28.7859 28.8353Z" fill="#23262D"/>
<path d="M16 11C15.4475 11 15 11.3496 15 11.7812V16.2188C15 16.6502 15.4475 17 16 17C16.5525 17 17 16.6501 17 16.2188V11.7812C17 11.5741 16.8947 11.3752 16.707 11.2289C16.5197 11.0823 16.2651 11 16 11L16 11Z" fill="#E36F59"/>
</svg>
