<?xml version="1.0" encoding="utf-8"?><svg viewBox="0 0 539 97" xmlns="http://www.w3.org/2000/svg" xmlns:xlink="http://www.w3.org/1999/xlink"><style>:root>svg{display:none}:root>svg:target{display:block}</style><svg viewBox="0 0 301 75" id="Hero" xmlns="http://www.w3.org/2000/svg"><path opacity=".3" d="M.205 73h-2v2h2v-2zm0-10l-.743-1.857-1.257.503V63h2zm8.5-3.4l1.683 1.08 3.369-5.255-5.795 2.318.743 1.857zm-2.5 3.9h-2v6.826l3.683-5.747L6.205 63.5zm0-51.5l1.576-1.23-3.576-4.583V12h2zm3.2 4.1l-.73 1.862 6.795 2.66-4.489-5.752-1.576 1.23zm-9.2-3.6h-2v1.365l1.27.498.73-1.863zm0-10L.174.5l-1.97.03V2.5h2zm32.5-.5h2V-.031L32.674 0l.03 2zm0 10l.837 1.816 1.163-.535V12h-2zm-8.9 4.1l-1.646-1.136-4.148 6.007 6.63-3.055-.836-1.816zm2.9-4.2h2V5.483l-3.646 5.28 1.646 1.137zm0 20.6l-1.414 1.414 3.414 3.414V32.5h-2zm-3-3v-2h-4.829l3.415 3.414 1.414-1.414zm26.1 0l1.414 1.414 3.414-3.414h-4.828v2zm-3 3h-2v4.828l3.414-3.414-1.414-1.414zm0-20.5l1.614-1.181-3.614-4.94V12h2zm3 4.1l-.743 1.857 6.475 2.59-4.118-5.628-1.614 1.181zm-9-3.6h-2v1.354l1.257.503.743-1.857zm0-10l-.031-2-1.97.03V2.5h2zm32.5-.5h2V-.031L73.274 0l.03 2zm0 10l.843 1.813 1.157-.538V12h-2zm-8.6 4l-1.69-1.071-3.653 5.762 6.186-2.878L64.705 16zm2.6-4.1h2V5.012l-3.69 5.817 1.69 1.071zm0 51.6l-1.664 1.11 3.664 5.496V63.5h-2zm-2.6-3.9l.735-1.86-5.946-2.35 3.547 5.32 1.664-1.11zm8.6 3.4h2v-1.36l-1.265-.5-.735 1.86zm0 10v2h2v-2h-2zm-32.5 0h-2v2h2v-2zm0-10l-.75-1.854-1.25.506V63h2zm8.4-3.4l1.703 1.048 3.192-5.187-5.646 2.285.75 1.854zm-2.4 3.9h-2v7.066l3.703-6.018-1.703-1.048zm0-22.5l1.414-1.414-3.414-3.414V41h2zm3 3v2h4.828l-3.414-3.414L49.805 44zm-26.1 0l-1.414-1.414L18.876 46h4.829v-2zm3-3h2v-4.828l-3.414 3.414L26.705 41zm0 22.5L25 64.548l3.704 6.018V63.5h-2zm-2.4-3.9l.75-1.854-5.646-2.285 3.192 5.187 1.704-1.048zm8.4 3.4h2v-1.348l-1.25-.506-.75 1.854zm0 10v2h2v-2h-2zm-30.5 0V63h-4v10h4zM.947 64.857l8.5-3.4-1.485-3.714-8.5 3.4 1.485 3.714zm6.074-6.336l-2.5 3.9 3.367 2.158 2.5-3.9-3.367-2.158zM8.205 63.5V12h-4v51.5h4zM4.628 13.23l3.2 4.1 3.153-2.46-3.2-4.1-3.153 2.46zm5.505 1.008l-9.2-3.6-1.457 3.725 9.2 3.6 1.457-3.726zM2.205 12.5v-10h-4v10h4zm-1.97-8l32.5-.5-.061-4-32.5.5.061 4zM30.705 2v10h4V2h-4zm1.163 8.184l-8.9 4.1 1.674 3.632 8.9-4.1-1.674-3.633zm-6.417 7.052l2.9-4.2-3.292-2.272-2.9 4.2 3.292 2.272zm-.746-5.336v20.6h4V11.9h-4zm3.414 19.186l-3-3-2.828 2.828 3 3 2.828-2.828zm-4.414.414h26.1v-4h-26.1v4zm24.686-3.414l-3 3 2.828 2.828 3-3-2.828-2.828zm.414 4.414V12h-4v20.5h4zM45.19 13.181l3 4.1 3.228-2.362-3-4.1-3.228 2.362zm5.356 1.062l-9-3.6-1.485 3.714 9 3.6 1.486-3.714zm-7.74-1.743v-10h-4v10h4zm-1.97-8l32.5-.5-.061-4-32.5.5.062 4zM71.305 2v10h4V2h-4zm1.156 8.187l-8.6 4 1.687 3.626 8.6-4-1.687-3.626zm-6.067 6.884l2.6-4.1-3.378-2.142-2.6 4.1 3.378 2.142zm-1.09-5.171v51.6h4V11.9h-4zm3.665 50.49l-2.6-3.9-3.328 2.22 2.6 3.9 3.328-2.22zm-5-.93l8.6 3.4 1.471-3.72-8.6-3.4-1.47 3.72zM71.305 63v10h4V63h-4zm2 8h-32.5v4h32.5v-4zm-30.5 2V63h-4v10h4zm-1.25-8.146l8.4-3.4-1.5-3.708-8.4 3.4 1.5 3.708zm5.946-6.302l-2.4 3.9 3.407 2.096 2.4-3.9-3.407-2.096zm1.304 4.948V41h-4v22.5h4zM45.39 42.414l3 3 2.828-2.828-3-3-2.828 2.828zM49.805 42h-26.1v4h26.1v-4zm-24.686 3.414l3-3-2.828-2.828-3 3 2.828 2.828zM24.705 41v22.5h4V41h-4zm3.703 21.452l-2.4-3.9-3.407 2.096 2.4 3.9 3.407-2.096zm-4.854-.998l8.4 3.4 1.501-3.708-8.4-3.4-1.5 3.708zM30.704 63v10h4V63h-4zm2 8H.205v4h32.5v-4zm97.33-19.1v-2h-1.561l-.379 1.515 1.94.485zm12 0l2 .019.019-2.019h-2.019v2zm-.2 21.1v2h1.982l.018-1.981-2-.019zm-53.7 0h-2v2h2v-2zm0-10l-.742-1.857-1.258.503V63h2zm8.5-3.4l1.684 1.08 3.368-5.255-5.794 2.318.742 1.857zm-2.5 3.9h-2v6.826l3.684-5.747-1.684-1.079zm0-51.5l1.691-1.068-3.69-5.844V12h2zm2.4 3.8l-.73 1.861 5.681 2.233-3.26-5.162-1.69 1.068zm-8.4-3.3h-2v1.363l1.27.498.73-1.861zm0-10l-.038-2-1.962.038V2.5h2zm26-.5V0h-.038l.038 2zm26.7 0h2V0h-2v2zm0 20.2v2h2v-2h-2zm-12 0l-1.927.534.406 1.466h1.521v-2zm-2.3-8.3l1.171-1.621-4.62-3.337 1.522 5.492 1.927-.534zm3.6 2.6v2h6.186l-5.015-3.621-1.171 1.621zm-18.5 0l-1.414-1.414-3.414 3.414h4.828v-2zm3-3h2V8.672l-3.414 3.414 1.414 1.414zm0 19.5l-1.414 1.414 3.414 3.414V33h-2zm-3-3v-2h-4.828l3.414 3.414L111.634 30zm20.9 0h2v-2h-2v2zm0 14v2h2v-2h-2zm-20.9 0l-1.518-1.302-2.83 3.302h4.348v-2zm3-3.5h2v-5.407l-3.518 4.105 1.518 1.302zm0 21l-1.414 1.414 3.414 3.414V61.5h-2zm-3-3v-2h-4.828l3.414 3.414 1.414-1.414zm19.7 0l1.26 1.553 4.383-3.553h-5.643v2zm-3.7 3l-1.94-.485-1.453 5.81 4.653-3.772-1.26-1.553zm2.4-7.6h12v-4h-12v4zm10-2.019l-.2 21.1 4 .038.2-21.1-4-.038zm1.8 19.119h-53.7v4h53.7v-4zm-51.7 2V63h-4v10h4zm-1.257-8.143l8.5-3.4-1.485-3.714-8.5 3.4 1.485 3.714zm6.074-6.336l-2.5 3.9 3.367 2.158 2.5-3.9-3.367-2.158zm1.183 4.979V12h-4v51.5h4zm-3.69-50.432l2.4 3.8 3.381-2.136-2.4-3.8-3.382 2.136zm4.822.87l-8.4-3.3-1.463 3.723 8.4 3.3 1.463-3.723zM90.134 12.5v-10h-4v10h4zm-1.961-8l26-.5-.077-4-26 .5.077 4zm25.961-.5h26.7V0h-26.7v4zm24.7-2v20.2h4V2h-4zm2 18.2h-12v4h12v-4zm-10.072 1.466l-2.3-8.3-3.855 1.068 2.3 8.3 3.855-1.068zm-5.399-6.145l3.6 2.6 2.342-3.242-3.6-2.6-2.342 3.242zm4.771-1.021h-18.5v4h18.5v-4zm-17.085 3.414l3-3-2.829-2.828-3 3 2.829 2.828zm-.415-4.414V33h4V13.5h-4zm3.415 18.086l-3-3-2.829 2.828 3 3 2.829-2.828zm-4.415.414h20.9v-4h-20.9v4zm18.9-2v14h4V30h-4zm2 12h-20.9v4h20.9v-4zm-19.381 3.302l3-3.5-3.037-2.604-3 3.5 3.037 2.604zm-.519-4.802v21h4v-21h-4zm3.415 19.586l-3-3-2.829 2.828 3 3 2.829-2.828zm-4.415.414h19.7v-4h-19.7v4zm18.441-3.553l-3.7 3 2.519 3.106 3.7-3-2.519-3.106zm-.5 5.038l2.4-9.6-3.881-.97-2.4 9.6 3.881.97zM157.705 73h-2v2h2v-2zm0-10l-.732-1.861-1.268.498V63h2zm8.4-3.3l1.691 1.068 3.26-5.162-5.683 2.233.732 1.861zm-2.4 3.8h-2v6.912l3.691-5.844-1.691-1.068zm0-51.4l1.521-1.298-3.521-4.125V12.1h2zm3.5 4.1l-.726 1.864 2.247-3.162-1.521 1.298zm-9.5-3.7h-2v1.367l1.274.497.726-1.864zm0-10l-.037-2-1.963.036V2.5h2zm27.3-.5V0h-.037l.037 2zm26.9 5.3l-1.276 1.54.006.005.006.005 1.264-1.55zm1.3 29.6l-1.489-1.335-.002.001 1.491 1.334zm-16.6 7.2l-1.993-.173-.215 2.478 2.466-.322-.258-1.983zm.2-2.3l-.052-2-1.786.047-.155 1.78 1.993.173zm6.4.8l-.678 1.882.045.016.045.014.588-1.912zm4.2 2.4l-1.415 1.414.022.022.022.02L207.405 45zm2.9 3.8l1.757-.955-.002-.003-1.755.958zm7.5 13.8l-1.06 1.696 6.448 4.03-3.631-6.681-1.757.955zm-5.6-3.5l.739-1.858-1.799 3.554 1.06-1.696zm9.8 3.9h2v-1.357l-1.261-.501-.739 1.858zm0 10v2h2v-2h-2zm-20.4 0l-1.808.856.542 1.144h1.266v-2zm-8.9-18.8l-1.819.831.005.013.006.012 1.808-.856zm-2.5-5.2l1.767-.936-1.767.936zm-2.1-2.2l-.828 1.82.029.014.029.012.77-1.846zm-3.6-.4l.057 2 .011-.001h.012l-.08-1.999zm-3.5.1l-1.29-1.529-4.375 3.692 5.722-.164-.057-1.999zm3.2-2.7h2v-4.304l-3.29 2.775 1.29 1.529zm0 19.7l-1.684 1.08 3.684 5.746V63.5h-2zm-2.5-3.9l.742-1.857-5.794-2.318 3.368 5.254 1.684-1.079zm8.5 3.4h2v-1.354l-1.258-.503-.742 1.857zm0 10v2h2v-2h-2zm-6-35.5l-1.685 1.078 3.685 5.757V37.5h-2zm-3.2-5v-2h-3.655l1.97 3.078 1.685-1.078zm14.3-2.1l1.348 1.477.017-.016.017-.016-1.382-1.445zm.5-11.9l-1.555 1.258.033.041.035.039 1.487-1.338zm-14.8-2.1l-1.368-1.46-3.69 3.46h5.058v-2zm3.2-3h2V8.784l-3.368 3.157 1.368 1.459zm-24.5 59.6V63h-4v10h4zm-1.269-8.138l8.4-3.3-1.463-3.723-8.4 3.3 1.463 3.723zm5.978-6.23l-2.4 3.8 3.382 2.136 2.4-3.8-3.382-2.136zm1.291 4.868V12.1h-4v51.4h4zm-3.521-50.102l3.5 4.1 3.042-2.597-3.5-4.1-3.042 2.598zm5.747.938l-9.5-3.7-1.452 3.728 9.5 3.7 1.452-3.728zm-8.226-1.836v-10h-4v10h4zm-1.964-8l27.3-.5-.073-4-27.3.5.073 4zm27.264-.5h7.8V0h-7.8v4zm7.8 0c8.236 0 14.063 1.726 17.824 4.84l2.551-3.08C208.408 1.808 201.502 0 192.805 0v4zm17.836 4.85c3.781 3.083 5.764 7.53 5.764 13.65h4c0-7.08-2.351-12.767-7.236-16.75l-2.528 3.1zm5.764 13.65c0 5.296-1.587 9.604-4.689 13.065l2.978 2.67c3.831-4.273 5.711-9.564 5.711-15.735h-4zm-4.691 13.066c-2.951 3.299-7.94 5.582-15.368 6.55l.517 3.967c7.906-1.031 13.983-3.548 17.832-7.85l-2.981-2.667zm-13.117 8.707l.2-2.3-3.985-.346-.2 2.3 3.985.346zm-1.741-.474c2.458-.063 4.32.196 5.671.683l1.355-3.764c-1.982-.714-4.386-.988-7.129-.917l.103 3.998zm5.761.713c1.484.456 2.58 1.108 3.373 1.902l2.829-2.828c-1.34-1.34-3.044-2.288-5.026-2.898l-1.176 3.824zm3.417 1.944c.968.912 1.809 2.007 2.515 3.302l3.511-1.916c-.893-1.638-1.986-3.077-3.285-4.298l-2.741 2.912zm2.513 3.299l7.5 13.8 3.515-1.91-7.5-13.8-3.515 1.91zm10.318 11.149l-5.6-3.5-2.12 3.392 5.6 3.5 2.12-3.392zm-7.4.054l9.8 3.9 1.479-3.716-9.8-3.9-1.479 3.716zm8.54 2.042v10h4V63h-4zm2 8h-20.4v4h20.4v-4zm-18.593 1.144l-8.9-18.8-3.615 1.712 8.9 18.8 3.615-1.712zm-8.888-18.776c-1.071-2.34-1.924-4.117-2.552-5.304l-3.535 1.872c.572 1.08 1.386 2.77 2.449 5.096l3.638-1.663zm-2.552-5.304c-.716-1.353-1.706-2.53-3.098-3.11l-1.539 3.692c.209.087.619.376 1.102 1.29l3.535-1.872zm-3.04-3.085c-1.188-.54-2.794-.646-4.507-.577l.16 3.996c1.62-.064 2.413.096 2.692.223l1.655-3.642zm-4.484-.578l-3.5.1.114 3.998 3.5-.1-.114-3.998zm-2.154 3.628l3.2-2.7-2.579-3.058-3.2 2.7 2.579 3.058zm-.089-4.229v19.7h4V43.8h-4zm3.683 18.62l-2.5-3.9-3.367 2.16 2.5 3.9 3.367-2.16zm-4.926-.963l8.5 3.4 1.485-3.714-8.5-3.4-1.485 3.714zM188.205 63v10h4V63h-4zm2 8h-32.5v4h32.5v-4zm-4.316-34.578l-3.2-5-3.369 2.156 3.2 5 3.369-2.156zm-4.884-1.922h7v-4h-7v4zm7 0c3.546 0 6.579-.733 8.648-2.623l-2.697-2.954c-.997.91-2.831 1.577-5.951 1.577v4zm8.682-2.655c2.051-1.962 2.918-4.73 2.918-7.945h-4c0 2.52-.667 4.084-1.683 5.055l2.765 2.89zm2.918-7.945c0-2.626-.703-4.948-2.314-6.738l-2.973 2.676c.789.877 1.287 2.154 1.287 4.062h4zm-2.246-6.658c-1.659-2.05-4.229-2.842-7.154-2.842v4c2.274 0 3.437.608 4.045 1.358l3.109-2.516zm-7.154-2.842h-9.2v4h9.2v-4zm-7.832 3.46l3.2-3-2.736-2.92-3.2 3 2.736 2.92zm-.168-4.46v24.1h4V13.4h-4zm65.522 57l-1.018 1.721.014.009.015.008.989-1.738zm-10.8-12.2l-1.827.812.006.014.006.014 1.815-.84zm-1.3-36.1l-1.897-.633-.003.009-.002.008 1.902.616zm6.9-12l1.459 1.368-1.459-1.368zm10.8-7.2l-.702-1.873-.01.004.712 1.869zm28.7 0l-.732 1.861.01.004.722-1.865zm10.3 7l-1.493 1.33.016.018.015.017 1.462-1.365zm6.3 11.1l-1.906.606.005.013.004.014 1.897-.633zm-2.1 35.5l-1.793-.886-.004.008 1.797.878zm-12.1 13.3l1.023 1.719-1.023-1.719zm-11.2-12.6l-1.109-1.664-.015.01-.014.01 1.138 1.644zm4.1-6.6l-1.909-.597-.005.019-.006.018 1.92.56zm.2-26.4l-1.935.505.007.025.007.025 1.921-.555zm-17-6.4l1.095 1.674.022-.015.022-.015-1.139-1.644zm-3.9 6.4l-1.927-.533 1.927.533zm-.2 26.2l-1.945.465.005.02.005.02 1.935-.505zm3.7 6.6l1.25-1.562-1.25 1.562zm5.2 15.5c-6.673 0-12.179-1.315-16.61-3.838l-1.979 3.476c5.169 2.944 11.396 4.362 18.589 4.362v-4zm-16.581-3.821c-4.36-2.58-7.695-6.327-10.003-11.319l-3.631 1.68c2.625 5.674 6.49 10.06 11.597 13.081l2.037-3.442zm-9.991-11.291c-2.258-5.08-3.428-11.322-3.428-18.788h-4c0 7.867 1.231 14.693 3.773 20.412l3.655-1.624zM235.327 38.6c0-6.11.748-11.393 2.203-15.884l-3.805-1.232c-1.612 4.976-2.398 10.692-2.398 17.116h4zm2.198-15.867c1.522-4.569 3.687-8.306 6.461-11.265l-2.918-2.736c-3.225 3.44-5.661 7.704-7.338 12.736l3.795 1.265zm6.461-11.265c2.787-2.973 6.13-5.204 10.053-6.699l-1.424-3.738c-4.476 1.705-8.334 4.274-11.547 7.701l2.918 2.736zm10.044-6.695c4.004-1.502 8.594-2.273 13.797-2.273v-4c-5.596 0-10.673.83-15.202 2.527l1.405 3.746zM267.827 2.5c5.207 0 9.682.772 13.468 2.261l1.465-3.722c-4.348-1.71-9.339-2.539-14.933-2.539v4zm13.478 2.265c3.862 1.495 7.023 3.654 9.529 6.466l2.986-2.662c-2.96-3.322-6.665-5.829-11.071-7.534l-1.444 3.73zm9.56 6.5c2.574 2.757 4.535 6.188 5.856 10.341l3.812-1.212c-1.478-4.647-3.717-8.616-6.744-11.859l-2.924 2.73zm5.865 10.367c1.386 4.16 2.097 8.94 2.097 14.368h4c0-5.772-.755-10.991-2.302-15.633l-3.795 1.265zM298.827 36c0 7.625-1.388 14.142-4.093 19.614l3.586 1.772c3.029-6.129 4.507-13.277 4.507-21.386h-4zm-4.097 19.622c-2.636 5.4-6.407 9.533-11.325 12.46l2.045 3.437c5.615-3.341 9.911-8.073 12.874-14.141l-3.594-1.756zm-11.325 12.46c-4.896 2.912-10.892 4.418-18.078 4.418v4c7.748 0 14.486-1.627 20.123-4.981l-2.045-3.438zM266.827 61c2.857 0 5.408-.68 7.539-2.156l-2.277-3.288c-1.336.925-3.052 1.444-5.262 1.444v4zm7.51-2.136c2.355-1.57 3.913-4.285 4.91-7.704l-3.84-1.12c-.869 2.981-2.044 4.666-3.289 5.496l2.219 3.328zm4.899-7.667c1.09-3.489 1.591-8.328 1.591-14.397h-4c0 5.93-.499 10.292-1.409 13.203l3.818 1.194zm1.591-14.397c0-5.472-.435-9.89-1.378-13.155l-3.843 1.11c.79 2.735 1.221 6.717 1.221 12.045h4zm-1.364-13.105c-.862-3.304-2.314-5.959-4.597-7.54l-2.277 3.29c1.184.819 2.265 2.431 3.003 5.26l3.871-1.01zm-4.597-7.54C272.704 14.66 270.003 14 266.927 14v4c2.525 0 4.357.541 5.662 1.444l2.277-3.288zM266.927 14c-2.856 0-5.408.68-7.538 2.156l2.277 3.288c1.336-.925 3.051-1.444 5.261-1.444v-4zm-7.494 2.126c-2.318 1.515-3.807 4.193-4.733 7.54l3.855 1.067c.807-2.919 1.918-4.508 3.067-5.26l-2.189-3.347zm-4.733 7.54c-.94 3.397-1.373 8.178-1.373 14.234h4c0-5.944.434-10.296 1.228-13.167l-3.855-1.066zM253.327 37.9c0 5.334.369 9.679 1.155 12.965l3.89-.93c-.68-2.847-1.045-6.836-1.045-12.035h-4zm1.165 13.005c.859 3.29 2.255 5.952 4.386 7.657l2.499-3.124c-1.202-.962-2.273-2.7-3.014-5.543l-3.871 1.01zm4.386 7.657c2.119 1.695 4.838 2.438 7.949 2.438v-4c-2.488 0-4.236-.59-5.45-1.562l-2.499 3.124z"/></svg><svg viewBox="0 0 539 97" id="ITifico" xmlns="http://www.w3.org/2000/svg"><path opacity=".06" d="M42.37 15.7l.867 1.802 1.133-.545V15.7h-2zM32.1 20.64l-1.655-1.123-4.169 6.144 6.69-3.219-.866-1.802zM34.57 17h2v-6.51l-3.655 5.387L34.57 17zm0 64.35l-1.636 1.151 3.636 5.166V81.35h-2zm-2.47-3.51l.75-1.854-6.295-2.55 3.91 5.555L32.1 77.84zM42.37 82h2v-1.348l-1.25-.506L42.37 82zm0 13v2h2v-2h-2zM.12 95h-2v2h2v-2zm0-13l-.747-1.855-1.253.504V82h2zm10.01-4.03l1.674 1.094 3.483-5.326-5.904 2.377.747 1.855zm-2.21 3.38h-2v6.714l3.674-5.62L7.92 81.35zm0-64.35l1.54-1.275-3.54-4.279V17h2zm3.12 3.77l-.75 1.854 2.29-3.13-1.54 1.276zM.12 16.35h-2v1.348l1.25.506.75-1.854zm0-13l-.03-2-1.97.03v1.97h2zm42.25-.65h2V.669L42.34.7l.03 2zm-.867 11.198l-10.27 4.94 1.734 3.604 10.27-4.94-1.734-3.604zm-7.748 7.865l2.47-3.64-3.31-2.246-2.47 3.64 3.31 2.246zM32.57 17v64.35h4V17h-4zm3.636 63.199l-2.47-3.51-3.272 2.302 2.47 3.51 3.272-2.302zm-4.857-.505l10.27 4.16 1.502-3.708-10.27-4.16-1.502 3.708zM40.37 82v13h4V82h-4zm2 11H.12v4h42.25v-4zM2.12 95V82h-4v13h4zM.867 83.855l10.01-4.03-1.494-3.71-10.01 4.03 1.494 3.71zm7.59-6.98l-2.21 3.38 3.347 2.19 2.21-3.38-3.348-2.19zM9.92 81.35V17h-4v64.35h4zM6.38 18.275l3.12 3.77 3.08-2.55-3.12-3.77-3.08 2.55zm5.41.641L.87 14.496l-1.5 3.708 10.92 4.42 1.5-3.708zM2.12 16.35v-13h-4v13h4zm-1.97-11L42.4 4.7l-.06-4-42.25.65.06 4zM40.37 2.7v13h4v-13h-4zM75.575 95h-2v2h2v-2zm0-13l-.633-1.897-1.367.456V82h2zm13.65-4.55l1.638 1.147 3.471-4.958-5.742 1.914.633 1.897zm-4.55 6.5h-2v6.345l3.638-5.198-1.638-1.147zm0-66.3l1.2-1.6-3.2-2.4v4h2zm5.2 3.9v2h6l-4.8-3.6-1.2 1.6zm-17.55 0l-1.307-1.514-4.069 3.514h5.376v-2zm5.72-4.94l1.938.492 1.565-6.16-4.81 4.154 1.307 1.514zm-4.16 16.38v2h1.555l.383-1.508-1.938-.492zm-15.6 0h-2v2h2v-2zm0-30.29v-2h-2v2h2zm79.43 0h2v-2h-2v2zm0 30.29v2h2v-2h-2zm-15.6 0l-1.938.493.383 1.507h1.555v-2zm-3.9-15.34l1.162-1.627-4.447-3.177 1.347 5.297 1.938-.493zm5.46 3.9v2h6.241l-5.079-3.628-1.162 1.628zm-17.55 0l-1.2-1.6-4.8 3.6h6v-2zm5.2-3.9h2v-4l-3.2 2.4 1.2 1.6zm0 66.3l-1.669 1.102 3.669 5.56V83.95h-2zm-4.29-6.5l.643-1.894-5.529-1.879 3.217 4.875 1.669-1.102zm13.39 4.55h2v-1.433l-1.357-.46-.643 1.893zm0 13v2h2v-2h-2zm-42.85 0V82h-4v13h4zm-1.368-11.103l13.65-4.55-1.265-3.794-13.65 4.55 1.265 3.794zm11.38-7.594l-4.55 6.5 3.276 2.294 4.55-6.5-3.277-2.294zm-.912 7.647v-66.3h-4v66.3h4zm-3.2-64.7l5.2 3.9 2.4-3.2-5.2-3.9-2.4 3.2zm6.4.3h-17.55v4h17.55v-4zm-16.243 3.514l5.72-4.94-2.614-3.028-5.72 4.94 2.614 3.028zm2.474-6.946l-4.16 16.38 3.877.984 4.16-16.38-3.877-.984zM73.885 30.99h-15.6v4h15.6v-4zm-13.6 2V2.7h-4v30.29h4zm-2-28.29h79.43v-4h-79.43v4zm77.43-2v30.29h4V2.7h-4zm2 28.29h-15.6v4h15.6v-4zm-13.662 1.507l-3.9-15.34-3.876.986 3.9 15.34 3.876-.986zm-7.001-13.22l5.46 3.9 2.325-3.255-5.46-3.9-2.325 3.256zm6.623.273h-17.55v4h17.55v-4zm-16.35 3.6l5.2-3.9-2.4-3.2-5.2 3.9 2.4 3.2zm2-5.5v66.3h4v-66.3h-4zm3.669 65.198l-4.29-6.5-3.338 2.204 4.29 6.5 3.338-2.204zm-6.603-3.504l13.39 4.55 1.287-3.788-13.39-4.55-1.287 3.788zM118.425 82v13h4V82h-4zm2 11h-44.85v4h44.85v-4zm75.406-77.3l.867 1.802 1.133-.545V15.7h-2zm-10.27 4.94l-1.655-1.123-4.169 6.144 6.691-3.219-.867-1.802zm2.47-3.64h2v-6.51l-3.655 5.387L188.031 17zm0 64.35l-1.636 1.151 3.636 5.166V81.35h-2zm-2.47-3.51l.751-1.854-6.296-2.55 3.909 5.555 1.636-1.151zm10.27 4.16h2v-1.348l-1.249-.506-.751 1.854zm0 13v2h2v-2h-2zm-42.25 0h-2v2h2v-2zm0-13l-.747-1.855-1.253.504V82h2zm10.01-4.03l1.674 1.094 3.483-5.326-5.904 2.377.747 1.855zm-2.21 3.38h-2v6.714l3.674-5.62-1.674-1.094zm0-64.35l1.541-1.275-3.541-4.279V17h2zm3.12 3.77l-.75 1.854 2.291-3.13-1.541 1.276zm-10.92-4.42h-2v1.348l1.25.506.75-1.854zm0-13l-.031-2-1.969.03v1.97h2zm42.25-.65h2V.669L195.8.7l.031 2zm-.867 11.198l-10.27 4.94 1.734 3.604 10.27-4.94-1.734-3.604zm-7.748 7.865l2.47-3.64-3.31-2.246-2.47 3.64 3.31 2.246zM186.031 17v64.35h4V17h-4zm3.636 63.199l-2.47-3.51-3.272 2.302 2.47 3.51 3.272-2.302zm-4.857-.505l10.27 4.16 1.502-3.708-10.27-4.16-1.502 3.708zM193.831 82v13h4V82h-4zm2 11h-42.25v4h42.25v-4zm-40.25 2V82h-4v13h4zm-1.253-11.145l10.01-4.03-1.494-3.71-10.01 4.03 1.494 3.71zm7.589-6.98l-2.21 3.38 3.348 2.19 2.21-3.38-3.348-2.19zm1.464 4.475V17h-4v64.35h4zm-3.541-63.075l3.12 3.77 3.082-2.55-3.12-3.77-3.082 2.55zm5.411.641l-10.92-4.42-1.5 3.708 10.92 4.42 1.5-3.708zm-9.67-2.566v-13h-4v13h4zm-1.969-11l42.25-.65-.062-4-42.25.65.062 4zm40.219-2.65v13h4v-13h-4zM215.077 95h-2v2h2v-2zm0-13l-.751-1.854-1.249.506V82h2zm10.27-4.16l1.636 1.151 3.909-5.555-6.296 2.55.751 1.854zm-2.47 3.51h-2v6.317l3.636-5.166-1.636-1.151zm0-65.65l1.644-1.138-3.644-5.265V15.7h2zm3.51 5.07l-.728 1.863 6.101 2.384-3.729-5.385-1.644 1.138zm-11.31-4.42h-2v1.366l1.272.497.728-1.863zm0-13l-.038-2-1.962.038V3.35h2zm33.8-.65v-2h-.038l.038 2zm34.32 0l2-.01-.01-1.99h-1.99v2zm.13 26.65v2h2.01l-.01-2.01-2 .01zm-15.6 0l-1.927.537.408 1.463h1.519v-2zm-2.86-10.27l.954-1.758-4.146-2.25 1.265 4.544 1.927-.536zm4.55 2.47v2l.954-3.758-.954 1.758zm-23.79 0l-1.414-1.414-3.414 3.414h4.828v-2zm3.9-3.9h2v-4.828l-3.414 3.414 1.414 1.414zm0 24.96l-1.338 1.487 3.338 3.004V42.61h-2zm-3.9-3.51v-2h-5.212l3.874 3.487 1.338-1.487zm27.3 0h2v-2h-2v2zm0 18.85v2h2v-2h-2zm-27.3 0l-1.414-1.414-3.414 3.414h4.828v-2zm3.9-3.9h2v-4.828l-3.414 3.414 1.414 1.414zm0 27.3l-1.522 1.297 3.522 4.135V81.35h-2zm-2.99-3.51l.621-1.901-6.743-2.202 4.6 5.4 1.522-1.297zm12.74 4.16h2v-1.45l-1.379-.451-.621 1.901zm0 13v2h2v-2h-2zm-42.2 0V82h-4v13h4zm-1.249-11.146l10.27-4.16-1.502-3.708-10.27 4.16 1.502 3.708zm7.883-7.165l-2.47 3.51 3.272 2.302 2.47-3.51-3.272-2.302zm1.166 4.661V15.7h-4v65.65h4zm-3.644-64.512l3.51 5.07 3.288-2.276-3.51-5.07-3.288 2.276zm5.882 2.07l-11.31-4.42-1.456 3.725 11.31 4.42 1.456-3.726zm-10.038-2.558v-13h-4v13h4zm-1.962-11l33.8-.65-.076-4-33.8.65.076 4zm33.762-.65h34.32v-4h-34.32v4zm32.32-1.99l.13 26.65 4-.02-.13-26.65-4 .02zm2.13 24.64h-15.6v4h15.6v-4zm-13.673 1.463l-2.86-10.27-3.854 1.073 2.86 10.27 3.854-1.072zm-5.741-7.975l4.55 2.47 1.908-3.516-4.55-2.47-1.908 3.516zm5.504-1.288h-23.79v4h23.79v-4zm-22.376 3.414l3.9-3.9-2.828-2.828-3.9 3.9 2.828 2.828zm.486-5.314v24.96h4V17.65h-4zm3.338 23.473l-3.9-3.51-2.676 2.974 3.9 3.51 2.676-2.974zm-5.238-.023h27.3v-4h-27.3v4zm25.3-2v18.85h4V39.1h-4zm2 16.85h-27.3v4h27.3v-4zm-25.886 3.414l3.9-3.9-2.828-2.828-3.9 3.9 2.828 2.828zm.486-5.314v27.3h4v-27.3h-4zm3.523 26.003l-2.99-3.51-3.045 2.594 2.99 3.51 3.045-2.594zm-5.134-.312l12.74 4.16 1.242-3.802-12.74-4.16-1.242 3.802zM257.277 82v13h4V82h-4zm2 11h-44.2v4h44.2v-4zm81.763-77.3l.867 1.802 1.133-.545V15.7h-2zm-10.27 4.94l-1.655-1.123-4.169 6.144 6.691-3.219-.867-1.802zm2.47-3.64h2v-6.51l-3.655 5.387L333.24 17zm0 64.35l-1.636 1.151 3.636 5.166V81.35h-2zm-2.47-3.51l.751-1.854-6.296-2.55 3.909 5.555 1.636-1.151zM341.04 82h2v-1.348l-1.249-.506L341.04 82zm0 13v2h2v-2h-2zm-42.25 0h-2v2h2v-2zm0-13l-.747-1.855-1.253.504V82h2zm10.01-4.03l1.674 1.094 3.483-5.326-5.904 2.377.747 1.855zm-2.21 3.38h-2v6.714l3.674-5.62-1.674-1.094zm0-64.35l1.541-1.275-3.541-4.279V17h2zm3.12 3.77l-.75 1.854 2.291-3.13-1.541 1.276zm-10.92-4.42h-2v1.348l1.25.506.75-1.854zm0-13l-.031-2-1.969.03v1.97h2zm42.25-.65h2V.669L341.009.7l.031 2zm-.867 11.198l-10.27 4.94 1.734 3.604 10.27-4.94-1.734-3.604zm-7.748 7.865l2.47-3.64-3.31-2.246-2.47 3.64 3.31 2.246zM331.24 17v64.35h4V17h-4zm3.636 63.199l-2.47-3.51-3.272 2.302 2.47 3.51 3.272-2.302zm-4.857-.505l10.27 4.16 1.502-3.708-10.27-4.16-1.502 3.708zM339.04 82v13h4V82h-4zm2 11h-42.25v4h42.25v-4zm-40.25 2V82h-4v13h4zm-1.253-11.145l10.01-4.03-1.494-3.71-10.01 4.03 1.494 3.71zm7.589-6.98l-2.21 3.38 3.348 2.19 2.21-3.38-3.348-2.19zm1.464 4.475V17h-4v64.35h4zm-3.541-63.075l3.12 3.77 3.082-2.55-3.12-3.77-3.082 2.55zm5.411.641l-10.92-4.42-1.5 3.708 10.92 4.42 1.5-3.708zm-9.67-2.566v-13h-4v13h4zm-1.969-11l42.25-.65-.062-4-42.25.65.062 4zM339.04 2.7v13h4v-13h-4zm41.136 89.05l-1.011 1.726.015.008.014.009.982-1.743zm-14.69-15.86l-1.78.912.007.013.007.013 1.766-.938zm-.13-52.65l-1.797-.877 1.797.877zm15.08-16.64l1.012 1.725.009-.005.008-.005-1.029-1.715zm37.7-4.03l-.485 1.94.016.004.017.004.452-1.948zm15.86 5.2l1.997.108.077-1.42-1.317-.54-.757 1.852zm-1.43 26.39v2h1.895l.102-1.892-1.997-.108zm-15.6 0l-1.926.538.408 1.462h1.518v-2zm-4.03-14.43l1.323-1.5-5.067-4.47 1.818 6.508 1.926-.538zm4.42 3.9l-.709 1.87 2.032-3.37-1.323 1.5zm-6.89-2.08l-.425 1.954.009.002.008.002.408-1.958zm-15.08 2.34l-1.297-1.523 1.297 1.523zm-5.2 8.71l-1.918-.567-.004.015-.004.014 1.926.538zm.65 30.55l-1.897.633.007.022.008.022 1.882-.677zm6.5 9.62l-1.2 1.6.016.012.017.012 1.167-1.624zm18.59 1.3l.663 1.887.022-.008.023-.008-.708-1.871zm10.01-5.33l1.693-1.065-1.1-1.748-1.712 1.155 1.119 1.658zm9.49 15.08l1.223 1.583 1.437-1.111-.967-1.537-1.693 1.065zm-17.55 9.88l-.681-1.88.681 1.88zm-17.55 1.25c-6.947 0-13.324-1.65-19.168-4.943l-1.964 3.486c6.463 3.64 13.519 5.457 21.132 5.457v-4zm-19.139-4.926c-5.706-3.342-10.358-8.336-13.934-15.072l-3.533 1.876c3.877 7.304 9.018 12.883 15.445 16.648l2.022-3.452zm-13.921-15.046c-3.456-6.748-5.24-15.253-5.24-25.608h-4c0 10.792 1.856 19.967 5.68 27.432l3.56-1.824zm-5.24-25.608c0-9.91 1.737-18.306 5.127-25.253l-3.594-1.754c-3.716 7.613-5.533 16.638-5.533 27.007h4zm5.127-25.253c3.395-6.954 8.16-12.193 14.295-15.792l-2.024-3.45c-6.865 4.028-12.153 9.882-15.865 17.488l3.594 1.754zm14.312-15.802c6.138-3.683 13.482-5.565 22.111-5.565v-4c-9.224 0-17.307 2.018-24.169 6.135l2.058 3.43zm22.111-5.565c4.685 0 9.375.585 14.075 1.76l.97-3.88c-5.007-1.252-10.023-1.88-15.045-1.88v4zm14.108 1.768c4.728 1.098 9.911 2.794 15.555 5.103l1.514-3.702c-5.796-2.371-11.186-4.141-16.165-5.297l-.904 3.896zm14.315 3.144l-1.43 26.39 3.994.216 1.43-26.39-3.994-.216zm.567 24.498h-15.6v4h15.6v-4zm-13.674 1.462l-4.03-14.43-3.852 1.076 4.03 14.43 3.852-1.076zm-7.279-12.392l4.42 3.9 2.646-3-4.42-3.9-2.646 3zm6.452.53c-2.587-.981-4.986-1.709-7.191-2.168l-.816 3.916c1.955.407 4.149 1.067 6.589 1.992l1.418-3.74zm-7.174-2.164c-2.117-.46-4.166-.696-6.145-.696v4c1.661 0 3.425.198 5.295.604l.85-3.908zm-6.145-.696c-4.244 0-7.866 1.09-10.657 3.468l2.594 3.045c1.889-1.61 4.507-2.513 8.063-2.513v-4zm-10.657 3.468c-2.711 2.309-4.616 5.588-5.821 9.665l3.836 1.134c1.049-3.55 2.61-6.077 4.579-7.755l-2.594-3.044zm-5.829 9.694c-1.104 3.955-1.634 8.698-1.634 14.188h4c0-5.257.51-9.614 1.486-13.112l-3.852-1.076zm-1.634 14.188c0 6.97.748 12.837 2.313 17.532l3.794-1.264c-1.381-4.145-2.107-9.545-2.107-16.268h-4zm2.328 17.577c1.65 4.583 4.009 8.163 7.182 10.543l2.4-3.2c-2.373-1.78-4.348-4.613-5.818-8.697l-3.764 1.354zm7.215 10.567c3.136 2.254 6.757 3.366 10.787 3.366v-4c-3.25 0-6.042-.882-8.453-2.614l-2.334 3.248zm10.787 3.366c3.044 0 6.26-.618 9.633-1.803l-1.326-3.774c-3.04 1.068-5.804 1.577-8.307 1.577v4zm9.678-1.82c3.379-1.278 6.853-3.134 10.421-5.542l-2.238-3.316c-3.365 2.272-6.564 3.97-9.599 5.117l1.416 3.742zm7.609-6.135l9.49 15.08 3.386-2.13-9.49-15.08-3.386 2.13zm9.96 12.432c-5.578 4.31-11.248 7.496-17.008 9.583l1.362 3.76c6.2-2.246 12.23-5.648 18.092-10.177l-2.446-3.166zm-17.008 9.583c-5.786 2.096-11.406 3.13-16.869 3.13v4c5.977 0 12.057-1.133 18.231-3.37l-1.362-3.76zm52.503-.2l-1.018 1.721.014.009.015.008.989-1.738zm-14.04-15.86l-1.827.812.006.014.006.014 1.815-.84zm-1.69-46.93l-1.897-.632-.003.008-.002.008 1.902.616zm8.97-15.6l1.459 1.368-1.459-1.368zm14.04-9.36l-.702-1.873-.01.004.712 1.869zm37.31 0l-.732 1.861.01.004.722-1.865zm13.39 9.1l-1.493 1.33.016.018.015.017 1.462-1.365zm8.19 14.43l-1.906.606.005.014.004.012 1.897-.632zm-2.73 46.15l-1.793-.886-.004.008 1.797.878zm-15.73 17.29l1.023 1.719-1.023-1.719zm-14.56-16.38l-1.109-1.664-.015.01-.014.01 1.138 1.644zm5.33-8.58l-1.909-.597-.005.019-.006.018 1.92.56zm.26-34.32l-1.935.505.007.025.007.025 1.921-.555zm-22.1-8.32l1.095 1.674.022-.015.022-.015-1.139-1.644zm-5.07 8.32l-1.927-.533 1.927.533zm-.26 34.06l-1.945.465.005.02.005.02 1.935-.505zm4.81 8.58l1.25-1.562-1.25 1.562zm6.76 20.75c-8.753 0-16.019-1.725-21.89-5.068l-1.979 3.476c6.609 3.764 14.596 5.592 23.869 5.592v-4zm-21.861-5.051c-5.781-3.42-10.195-8.387-13.243-14.979l-3.631 1.68c3.365 7.274 8.31 12.88 14.837 16.741l2.037-3.442zm-13.231-14.951c-2.978-6.7-4.508-14.901-4.508-24.668h-4c0 10.167 1.591 18.953 4.853 26.292l3.655-1.624zm-4.508-24.668c0-7.99.978-14.923 2.893-20.834l-3.805-1.232c-2.072 6.396-3.088 13.762-3.088 22.066h4zm2.888-20.818c2.002-6.008 4.857-10.945 8.531-14.864l-2.918-2.736c-4.125 4.4-7.251 9.864-9.408 16.335l3.795 1.265zm8.531-14.864c3.687-3.933 8.11-6.884 13.293-8.859l-1.424-3.738c-5.736 2.185-10.674 5.474-14.787 9.861l2.918 2.736zm13.284-8.855c5.284-1.982 11.324-2.993 18.147-2.993v-4c-7.216 0-13.743 1.07-19.552 3.247l1.405 3.746zm18.147-2.993c6.827 0 12.722 1.012 17.728 2.981l1.465-3.722c-5.568-2.19-11.979-3.259-19.193-3.259v4zm17.738 2.985c5.102 1.975 9.293 4.834 12.619 8.566l2.986-2.662c-3.78-4.242-8.516-7.449-14.161-9.634l-1.444 3.73zm12.65 8.6c3.414 3.657 6.005 8.198 7.746 13.671l3.812-1.212c-1.898-5.967-4.767-11.046-8.634-15.189l-2.924 2.73zm7.755 13.697c1.826 5.48 2.757 11.76 2.757 18.868h4c0-7.452-.975-14.171-2.962-20.133l-3.795 1.265zm2.757 18.868c0 9.985-1.818 18.553-5.383 25.764l3.586 1.772c3.889-7.869 5.797-17.067 5.797-27.536h-4zm-5.387 25.772c-3.476 7.12-8.457 12.583-14.955 16.45l2.045 3.437c7.195-4.281 12.701-10.343 16.504-18.131l-3.594-1.756zm-14.955 16.45c-6.476 3.852-14.382 5.828-23.808 5.828v4c9.988 0 18.636-2.097 25.853-6.391l-2.045-3.438zM494.528 78.8c3.617 0 6.808-.86 9.459-2.696l-2.277-3.288c-1.856 1.285-4.212 1.984-7.182 1.984v4zm9.43-2.676c2.895-1.93 4.863-5.305 6.14-9.684l-3.84-1.12c-1.149 3.941-2.734 6.286-4.519 7.476l2.219 3.328zm6.129-9.647c1.39-4.449 2.041-10.668 2.041-18.537h-4c0 7.73-.649 13.472-1.859 17.343l3.818 1.194zm2.041-18.537c0-7.092-.565-12.77-1.768-16.935l-3.843 1.11c1.05 3.635 1.611 8.877 1.611 15.825h4zm-1.754-16.885c-1.103-4.224-2.934-7.519-5.737-9.46l-2.277 3.29c1.703 1.179 3.165 3.431 4.143 7.18l3.871-1.01zm-5.737-9.46c-2.682-1.856-6.063-2.695-9.979-2.695v4c3.365 0 5.877.721 7.702 1.984l2.277-3.288zm-9.979-2.695c-3.616 0-6.808.86-9.458 2.696l2.277 3.288c1.856-1.285 4.211-1.984 7.181-1.984v-4zm-9.414 2.666c-2.838 1.855-4.717 5.173-5.903 9.46l3.855 1.067c1.067-3.859 2.568-6.088 4.237-7.18l-2.189-3.347zm-5.903 9.46c-1.2 4.337-1.763 10.488-1.763 18.344h4c0-7.744.564-13.466 1.618-17.277l-3.855-1.066zm-1.763 18.344c0 6.914.479 12.509 1.485 16.715l3.89-.93c-.9-3.767-1.375-9.006-1.375-15.785h-4zm1.495 16.755c1.099 4.21 2.865 7.532 5.496 9.637l2.499-3.124c-1.703-1.362-3.143-3.76-4.124-7.523l-3.871 1.01zm5.496 9.637c2.618 2.095 6.008 3.038 9.959 3.038v-4c-3.328 0-5.746-.79-7.46-2.162l-2.499 3.124z"/></svg><svg viewBox="0 0 16 8" id="arrow-bold" xmlns="http://www.w3.org/2000/svg"><path d="M8 0l8 8H0l8-8z"/></svg><svg viewBox="0 0 10 10" id="arrow-down-to-navigate" xmlns="http://www.w3.org/2000/svg"><path d="M5 7.85a.698.698 0 01-.495-.205l-4.3-4.3a.7.7 0 11.99-.99L5 6.16l3.804-3.805a.7.7 0 01.99.99l-4.299 4.3A.698.698 0 015 7.85z"/></svg><svg viewBox="0 0 40 12" id="arrow-l" xmlns="http://www.w3.org/2000/svg"><path d="M0 6l6-6v12L0 6zM5.555 6h34.444"/></svg><svg viewBox="0 0 40 12" id="arrow-left" xmlns="http://www.w3.org/2000/svg"><path d="M0 6l6-6v12L0 6zM5.555 6h34.444"/></svg><svg viewBox="0 0 10 10" id="arrow-next" xmlns="http://www.w3.org/2000/svg"><path d="M9.84 5.389L6.23 9a.543.543 0 01-.387.16.543.543 0 01-.387-.16l-.328-.328a.554.554 0 010-.779l2.107-2.111H.54A.534.534 0 010 5.244V4.78c0-.302.238-.562.54-.562h6.718L5.127 2.095a.54.54 0 010-.769L5.455 1a.543.543 0 01.387-.16c.146 0 .284.057.387.16L9.84 4.612c.104.103.16.241.16.388a.544.544 0 01-.16.389z"/></svg><svg viewBox="0 0 40 15" id="arrow-right" xmlns="http://www.w3.org/2000/svg"><path d="M40 9l-6 6V3l6 6zM34.445 9H.001"/></svg><svg viewBox="0 0 14 18" id="bell" xmlns="http://www.w3.org/2000/svg"><path d="M13.975 13.145c-.084.41-.312.776-.645 1.037-.333.261-.783.827-1.209.818H1.811c-.427.01-.808-.557-1.141-.818a1.773 1.773 0 01-.645-1.037c-.063-.36-.006-.73.161-1.057.168-.327.437-.592.77-.758.535-.297.882-.838.923-1.44l.311-3.054A4.69 4.69 0 013.445 4.1C4.155 3.346 4.97 2.837 6 2.652V1c0-.306.292-.732.563-.885a.89.89 0 01.875 0C7.708.268 8 .694 8 1v1.652c1.05.215 1.876.771 2.589 1.557a4.846 4.846 0 011.24 2.822l.292 2.859c.041.602.388 1.143.923 1.44.332.166.602.432.77.758.167.327.224.697.161 1.057zM7 18c.464 0 .91-.18 1.238-.502C8.566 17.176 9 16.455 9 16H5c0 .455.435 1.176.763 1.498A1.77 1.77 0 007 18z"/></svg><svg viewBox="0 0 14 14" id="calendar" xmlns="http://www.w3.org/2000/svg"><g clip-path="url(#ja)"><path d="M5.1 7.724a.318.318 0 00-.318-.318H3.673a.318.318 0 00-.318.318v1.109c0 .175.143.317.318.317h1.109a.318.318 0 00.318-.317v-1.11zm2.773 0a.318.318 0 00-.317-.318h-1.11a.318.318 0 00-.317.318v1.109c0 .175.142.317.318.317h1.109a.318.318 0 00.317-.317v-1.11zm2.774 0a.318.318 0 00-.318-.318H9.22a.318.318 0 00-.318.318v1.109c0 .175.143.317.318.317h1.109a.318.318 0 00.318-.317v-1.11zM5.1 10.495a.318.318 0 00-.318-.317H3.673a.318.318 0 00-.318.317v1.109c0 .175.143.317.318.317h1.109a.318.318 0 00.318-.317v-1.109zm2.773 0a.317.317 0 00-.317-.317h-1.11a.318.318 0 00-.317.317v1.109c0 .175.142.317.318.317h1.109a.318.318 0 00.317-.317v-1.109zm2.774 0a.318.318 0 00-.318-.317H9.22a.318.318 0 00-.318.317v1.109c0 .175.143.317.318.317h1.11a.318.318 0 00.317-.317v-1.109z"/><path d="M12.627 1.559v1.693c0 .766-.62 1.383-1.386 1.383h-.874a1.39 1.39 0 01-1.395-1.383v-1.7H5.03v1.7a1.39 1.39 0 01-1.394 1.383H2.76a1.383 1.383 0 01-1.386-1.383V1.56A1.26 1.26 0 00.156 2.813v9.925C.156 13.43.718 14 1.411 14h11.18c.692 0 1.255-.57 1.255-1.262V2.813c0-.68-.55-1.234-1.219-1.254zm-.406 10.56c0 .3-.243.543-.542.543h-9.38a.543.543 0 01-.542-.542V6.993c0-.3.243-.542.543-.542h9.379c.3 0 .542.243.542.542v5.127z"/><path d="M2.76 3.727h.866a.475.475 0 00.475-.475V.475A.475.475 0 003.626 0H2.76a.475.475 0 00-.476.475v2.777c0 .262.213.475.476.475zm7.594 0h.865a.475.475 0 00.476-.475V.475A.475.475 0 0011.219 0h-.865a.475.475 0 00-.475.475v2.777c0 .262.213.475.475.475z"/></g><defs><clipPath id="ja"><path d="M0 0h14v14H0z"/></clipPath></defs></svg><svg viewBox="0 0 47 50" id="exclamation" xmlns="http://www.w3.org/2000/svg"><path d="M46.065 31.104l-4.497-4.005c-1.302-1.159-1.302-3.057 0-4.216l4.497-4.008c1.302-1.159.956-2.236-.77-2.406l-5.964-.565c-1.724-.16-2.656-1.648-2.06-3.296l3.164-8.81c.594-1.653-.133-2.252-1.611-1.338L31.79 6.81c-1.479.922-3.393.417-4.247-1.11l-2.547-4.546c-.856-1.531-2.27-1.536-3.143-.02l-2.367 4.113c-.878 1.524-2.885 2.17-4.46 1.448l-4.167-1.911c-1.583-.73-2.794.11-2.7 1.864l.223 4.205c.096 1.756-1.2 3.56-2.874 4.013l-4.024 1.079c-1.672.453-1.979 1.77-.677 2.93l4.497 4.007c1.302 1.159 1.302 3.057 0 4.216L.807 31.105c-1.302 1.158-.958 2.283.763 2.492l5.455.661c1.722.208 2.68 1.745 2.13 3.414L6.36 46.156c-.55 1.669.234 2.315 1.74 1.445l6.413-3.714c1.505-.87 3.531-.39 4.502 1.063l2.661 4.008c.969 1.455 2.424 1.377 3.23-.177l2.34-4.513c.807-1.557 2.74-2.192 4.292-1.414l4.515 2.258c1.557.773 2.753-.026 2.659-1.776l-.227-4.21c-.091-1.756 1.2-3.555 2.88-4.009l4.018-1.083c1.677-.453 1.984-1.77.682-2.93h.001zm-20.024 4.312h-5.208v-5.208h5.208v5.208zm0-7.812h-5.208v-13.02h5.208v13.02z"/></svg><svg viewBox="0 0 14 14" id="eye" xmlns="http://www.w3.org/2000/svg"><g clip-path="url(#la)"><path d="M7.001 5.09A1.91 1.91 0 018.911 7 1.91 1.91 0 017 8.91 1.91 1.91 0 015.092 7a1.91 1.91 0 011.91-1.91z"/><path d="M7 2.227c3.182 0 5.9 1.98 7 4.773a7.526 7.526 0 01-7 4.773c-3.185 0-5.9-1.98-7-4.773a7.523 7.523 0 017-4.773zm0 7.955a3.183 3.183 0 000-6.364 3.183 3.183 0 000 6.364z"/></g><defs><clipPath id="la"><path transform="matrix(-1 0 0 1 14 0)" d="M0 0h14v14H0z"/></clipPath></defs></svg><svg viewBox="0 0 16 16" id="facebook" xmlns="http://www.w3.org/2000/svg"><path d="M12 .003L9.926 0C7.595 0 6.088 1.546 6.088 3.938v1.815H4.002a.326.326 0 00-.326.327v2.63c0 .18.146.326.326.326h2.086v6.638c0 .18.146.326.326.326h2.722c.18 0 .326-.146.326-.326V9.036h2.44c.18 0 .326-.146.326-.326V6.08a.327.327 0 00-.325-.327h-2.44V4.214c0-.74.176-1.115 1.14-1.115H12c.18 0 .326-.147.326-.327V.33A.326.326 0 0012 .003z"/></svg><svg viewBox="0 0 13 13" id="home" xmlns="http://www.w3.org/2000/svg"><g clip-path="url(#na)"><path d="M12.782 5.811L6.949.497a.664.664 0 00-.898 0L.218 5.81a.662.662 0 00-.172.734c.1.259.344.426.621.426H1.6v5.325c0 .21.171.382.382.382h3.197a.382.382 0 00.383-.382V9.063H7.44v3.233c0 .21.17.382.382.382h3.197a.382.382 0 00.382-.382V6.97h.932a.662.662 0 00.621-.426.663.663 0 00-.172-.734zm-1.48-4.726H8.734l2.95 2.682v-2.3a.382.382 0 00-.382-.382z"/></g><defs><clipPath id="na"><path d="M0 0h13v13H0z"/></clipPath></defs></svg><svg viewBox="0 0 45 50" id="icon-C" xmlns="http://www.w3.org/2000/svg"><path d="M44.458 14.684c0-.835-.178-1.588-.548-2.219-.356-.63-.89-1.15-1.602-1.56C36.39 7.493 30.46 4.082 24.543.672c-1.603-.918-3.137-.89-4.726.041-2.355 1.383-14.161 8.15-17.668 10.19C.698 11.74 0 13.027 0 14.698v20.599c0 .822.178 1.548.52 2.178.357.643.904 1.191 1.63 1.616 3.52 2.04 15.313 8.793 17.668 10.19 1.59.93 3.137.972 4.726.04 5.916-3.423 11.847-6.82 17.763-10.23.74-.425 1.274-.959 1.63-1.616.343-.63.52-1.356.52-2.178V14.684z"/><path d="M28.625 28.586a7.36 7.36 0 01-6.41 3.753 7.325 7.325 0 01-6.382-3.712 7.347 7.347 0 0112.737-7.328l6.424-3.698c-2.561-4.41-7.327-7.382-12.792-7.382-8.163 0-14.765 6.615-14.765 14.765 0 2.67.713 5.19 1.959 7.355a14.787 14.787 0 0012.82 7.41c5.492 0 10.285-3 12.833-7.452l-6.424-3.711zm8.122-7.095h-1.465v7.081h1.465v-7.08zm3.246 0h-1.465v7.081h1.465v-7.08z"/><path d="M41.186 22.683h-7.08v1.465h7.08v-1.465zm0 3.232h-7.08v1.466h7.08v-1.466z"/></svg><svg viewBox="0 0 97 97" id="left-quote" xmlns="http://www.w3.org/2000/svg"><g clip-path="url(#pa)"><path d="M31.045 44.708c-2.389-.688-4.778-1.037-7.102-1.037-3.588 0-6.583.82-8.905 1.824 2.239-8.194 7.616-22.335 18.328-23.927a2.545 2.545 0 002.076-1.83l2.341-8.374a2.543 2.543 0 00-2.104-3.206 17.784 17.784 0 00-2.395-.162c-12.858 0-25.592 13.42-30.965 32.637-3.155 11.274-4.08 28.223 3.69 38.892 4.348 5.97 10.69 9.157 18.853 9.475.034.002.066.003.1.003 10.07 0 19.001-6.783 21.718-16.493a22.418 22.418 0 00-2.068-17.146c-2.925-5.194-7.743-8.98-13.567-10.656zm63.043 10.657c-2.925-5.195-7.743-8.981-13.567-10.657-2.39-.688-4.778-1.037-7.101-1.037-3.589 0-6.584.82-8.906 1.825C66.752 37.3 72.13 23.16 82.843 21.567a2.547 2.547 0 002.075-1.83l2.342-8.374a2.543 2.543 0 00-2.105-3.206 17.76 17.76 0 00-2.395-.162c-12.858 0-25.591 13.42-30.966 32.637-3.153 11.274-4.078 28.223 3.693 38.894 4.346 5.968 10.69 9.157 18.852 9.475l.1.002c10.07 0 19.002-6.783 21.719-16.493a22.431 22.431 0 00-2.07-17.146z"/></g><defs><clipPath id="pa"><path d="M0 0h97v97H0z"/></clipPath></defs></svg><svg viewBox="0 0 16 16" id="ln" xmlns="http://www.w3.org/2000/svg"><g clip-path="url(#qa)"><path d="M15.992 16h-3.31v-.19c0-1.798.004-3.596-.005-5.393a6.101 6.101 0 00-.113-1.116c-.203-1.026-.875-1.414-1.869-1.314-.943.097-1.472.61-1.628 1.585-.062.394-.09.798-.094 1.198-.009 1.679-.003 3.354-.003 5.033v.194H5.664V5.327h3.172v1.479c.05-.056.072-.075.087-.097.56-.929 1.404-1.441 2.45-1.604.866-.134 1.725-.062 2.547.275.944.385 1.482 1.126 1.77 2.076.215.71.296 1.438.302 2.173.013 2.094.006 4.189.01 6.284a1.78 1.78 0 00-.01.087zM.273 15.997V5.327H3.57v10.67H.273zM1.922 3.864C.869 3.864 0 2.986 0 1.923A1.93 1.93 0 011.931 0a1.928 1.928 0 011.913 1.926c0 1.06-.872 1.938-1.922 1.938z"/></g><defs><clipPath id="qa"><path d="M0 0h16v16H0z"/></clipPath></defs></svg><svg viewBox="0 0 16 16" id="mail" xmlns="http://www.w3.org/2000/svg"><path d="M10.605 8.09L16 11.81V4.211L10.605 8.09zM0 4.212v7.597l5.394-3.72L0 4.212zM15.001 2h-14c-.499 0-.895.406-.97.928l7.97 5.729 7.97-5.729c-.075-.522-.47-.928-.97-.928zM9.69 8.748L8.273 9.765a.47.47 0 01-.55 0L6.31 8.747.031 13.08c.077.517.471.92.969.92h14c.497 0 .891-.403.968-.92L9.69 8.747z"/></svg><svg viewBox="0 0 107 52" id="main-logo" xmlns="http://www.w3.org/2000/svg"><path fill-rule="evenodd" clip-rule="evenodd" d="M46.922 10.562C42.125 14.01 39 19.64 39 26c0 6.36 3.125 11.99 7.922 15.438C42.187 47.845 34.58 52 26 52 11.64 52 0 40.36 0 26S11.64 0 26 0c8.579 0 16.187 4.155 20.922 10.562z"/><path d="M17.78 18.04l-2.64.9.45-.66v16.41l-.45-.63 2.64.78V37h-8.7v-2.16l2.61-.75-.39.6V18.28l.54.66-2.76-.75v-2.16l8.7-.15v2.16zM23.082 37v-2.16l3.33-.84-.78 1.08V18.31l.87.66h-4.89l.96-.84-.81 3.81h-2.55v-6.06h17.16v6.06h-2.55l-.75-3.63.9.66h-4.89l.87-.66v16.77l-.75-1.08 3.3.84V37h-9.42zM50.052 34.54l-.3-.36 2.31.66V37h-8.22v-2.16l2.31-.66-.3.36V23.59l.27.27-2.28-.63v-2.16l6.21-.21v13.68zm-2.22-16.02c-.74 0-1.34-.21-1.8-.63-.44-.42-.66-1.02-.66-1.8 0-.84.23-1.46.69-1.86.48-.42 1.08-.63 1.8-.63.7 0 1.28.21 1.74.63.46.4.69 1.01.69 1.83 0 .82-.24 1.44-.72 1.86-.46.4-1.04.6-1.74.6zM53.753 37v-2.16l2.4-.69-.39.45V23.47l.39.45h-2.49v-2.25l2.58-.66-.48.63v-1.92c0-1.42.25-2.59.75-3.51.52-.94 1.24-1.64 2.16-2.1.92-.46 1.97-.69 3.15-.69.42 0 .87.03 1.35.09.48.04.96.12 1.44.24l-.57 2.91c-.28-.08-.56-.14-.84-.18-.26-.04-.52-.06-.78-.06-.8 0-1.41.23-1.83.69-.42.46-.63 1.21-.63 2.25v2.28l-.54-.51h4.38l-.09 2.79h-4.17l.42-.45V34.6l-.39-.45 2.79.69V37h-8.61zm17.73-2.46l-.3-.36 2.31.66V37h-8.22v-2.16l2.31-.66-.3.36V23.59l.27.27-2.28-.63v-2.16l6.21-.21v13.68zm-2.22-16.02c-.74 0-1.34-.21-1.8-.63-.44-.42-.66-1.02-.66-1.8 0-.84.23-1.46.69-1.86.48-.42 1.08-.63 1.8-.63.7 0 1.28.21 1.74.63.46.4.69 1.01.69 1.83 0 .82-.24 1.44-.72 1.86-.46.4-1.04.6-1.74.6zm13.18 18.84c-1.38 0-2.63-.32-3.75-.96-1.1-.66-1.97-1.6-2.61-2.82-.64-1.22-.96-2.7-.96-4.44 0-1.58.23-2.91.69-3.99.46-1.08 1.08-1.95 1.86-2.61a7.21 7.21 0 012.61-1.47 9.9 9.9 0 012.97-.45c.96 0 1.93.12 2.91.36.98.24 1.78.51 2.4.81l-.12 4.41h-2.7l-.45-2.46.33.24c-.3-.12-.67-.21-1.11-.27-.42-.06-.81-.09-1.17-.09-.86 0-1.58.22-2.16.66-.56.42-.98 1.03-1.26 1.83-.28.78-.42 1.71-.42 2.79 0 1.16.16 2.14.48 2.94.32.8.77 1.41 1.35 1.83.6.4 1.29.6 2.07.6.62 0 1.3-.13 2.04-.39s1.51-.65 2.31-1.17l1.41 2.13c-1.12.86-2.24 1.5-3.36 1.92-1.12.4-2.24.6-3.36.6zm15.96-16.74c2.361 0 4.201.7 5.521 2.1 1.32 1.4 1.98 3.39 1.98 5.97 0 1.8-.32 3.35-.96 4.65-.64 1.28-1.56 2.27-2.76 2.97-1.2.7-2.64 1.05-4.32 1.05-2.36 0-4.19-.7-5.49-2.1-1.28-1.4-1.92-3.39-1.92-5.97 0-1.8.31-3.34.93-4.62.64-1.3 1.55-2.3 2.73-3 1.18-.7 2.61-1.05 4.29-1.05zm-.21 3c-1.14 0-1.99.45-2.55 1.35-.56.88-.84 2.25-.84 4.11 0 1.86.27 3.21.81 4.05.54.82 1.36 1.23 2.46 1.23.8 0 1.45-.2 1.951-.6.5-.4.88-1.01 1.14-1.83.26-.82.39-1.83.39-3.03 0-1.82-.28-3.15-.84-3.99-.56-.86-1.4-1.29-2.52-1.29z"/></svg><svg viewBox="0 0 253 71" id="new" xmlns="http://www.w3.org/2000/svg"><path d="M43.2.5l-.035-2-1.965.034V.5h2zM72 0h2v-2.035L71.965-2 72 0zm0 10l.835 1.817L74 11.282V10h-2zm-8.7 4l-1.67-1.1-3.844 5.836 6.35-2.919L63.3 14zM66 9.9h2V3.227L64.33 8.8 66 9.9zM66 71v2h2v-2h-2zm-23.7 0l-1.829.81.527 1.19H42.3v-2zM20.4 21.5v-2h-3.072l1.243 2.81 1.829-.81zm2.8 0h2v-2h-2v2zm0 40l-1.62 1.174 3.62 4.992V61.5h-2zm-2.9-4l.732-1.861-6.367-2.504 4.016 5.539L20.3 57.5zm8.9 3.5h2v-1.363l-1.268-.498L29.2 61zm0 10v2h2v-2h-2zM.4 71h-2v2h2v-2zm0-10l-.732-1.861-1.268.498V61h2zm8.9-3.5l1.62 1.174 4.015-5.54-6.367 2.505L9.3 57.5zm-2.9 4h-2v6.166l3.62-4.992L6.4 61.5zm0-51.5l1.789-.894L4.4 10h2zm1.8 3.6l-.739 1.859 4.873 1.936-2.345-4.69L8.2 13.6zM.4 10.5h-2v1.357l1.261.502L.4 10.5zm0-10l-.033-2-1.967.033V.5h2zM30.7 0l1.828-.812-.537-1.21L30.667-2l.033 2zm21.4 48.2v2h3.076l-1.248-2.812-1.828.812zm-2.9 0h-2v2h2v-2zm0-38.2l1.62-1.174-3.62-4.992V10h2zm2.9 4l-.732 1.861 6.367 2.504-4.016-5.539L52.1 14zm-8.9-3.5h-2v1.363l1.268.498.732-1.861zm.035-8l28.8-.5-.07-4-28.8.5.07 4zM70 0v10h4V0h-4zm1.165 8.183l-8.7 4 1.67 3.634 8.7-4-1.67-3.634zM64.97 15.1l2.7-4.1-3.34-2.2-2.7 4.1 3.34 2.2zM64 9.9V71h4V9.9h-4zM66 69H42.3v4H66v-4zm-21.871 1.19l-21.9-49.5-3.658 1.62 21.9 49.5 3.658-1.62zM20.4 23.5h2.8v-4h-2.8v4zm.8-2v40h4v-40h-4zm3.62 38.826l-2.9-4-3.24 2.348 2.9 4 3.24-2.348zm-5.252-.965l8.9 3.5 1.464-3.722-8.9-3.5-1.464 3.722zM27.2 61v10h4V61h-4zm2 8H.4v4h28.8v-4zM2.4 71V61h-4v10h4zm-1.268-8.139l8.9-3.5-1.464-3.722-8.9 3.5 1.464 3.722zm6.549-6.535l-2.9 4 3.238 2.348 2.9-4-3.238-2.348zM8.4 61.5V10h-4v51.5h4zM4.611 10.894l1.8 3.6 3.578-1.788-1.8-3.6-3.578 1.788zm4.328.847l-7.8-3.1L-.34 12.36l7.8 3.1 1.48-3.72zM2.4 10.5V.5h-4v10h4zm-1.967-8l30.3-.5-.066-4-30.3.5.066 4zM28.873.812l21.4 48.2 3.655-1.624-21.4-48.2L28.872.812zM52.1 46.2h-2.9v4h2.9v-4zm-.9 2V10h-4v38.2h4zm-3.62-37.026l2.9 4 3.24-2.348-2.9-4-3.24 2.348zm5.252.965l-8.9-3.5-1.464 3.722 8.9 3.5 1.464-3.722zM45.2 10.5V.5h-4v10h4zm82.295 39.4v-2h-1.561l-.379 1.515 1.94.485zm12 0l2 .019.019-2.019h-2.019v2zm-.2 21.1v2h1.981l.019-1.981-2-.019zm-53.7 0h-2v2h2v-2zm0-10l-.742-1.857-1.258.503V61h2zm8.5-3.4l1.684 1.08 3.368-5.255-5.794 2.318.742 1.857zm-2.5 3.9h-2v6.826l3.684-5.747-1.684-1.079zm0-51.5l1.691-1.068-3.69-5.844V10h2zm2.4 3.8l-.731 1.861 5.682 2.233-3.26-5.162-1.69 1.068zm-8.4-3.3h-2v1.363l1.269.498.731-1.861zm0-10l-.038-2-1.962.038V.5h2zm26-.5v-2h-.038l.038 2zm26.7 0h2v-2h-2v2zm0 20.2v2h2v-2h-2zm-12 0l-1.927.534.406 1.466h1.521v-2zm-2.3-8.3l1.171-1.621-4.62-3.337 1.522 5.492 1.927-.534zm3.6 2.6v2h6.185l-5.014-3.621-1.171 1.621zm-18.5 0l-1.414-1.414-3.414 3.414h4.828v-2zm3-3h2V6.672l-3.414 3.414 1.414 1.414zm0 19.5l-1.414 1.414 3.414 3.414V31h-2zm-3-3v-2h-4.828l3.414 3.414L109.095 28zm20.9 0h2v-2h-2v2zm0 14v2h2v-2h-2zm-20.9 0l-1.518-1.302-2.83 3.302h4.348v-2zm3-3.5h2v-5.407l-3.518 4.105 1.518 1.302zm0 21l-1.414 1.414 3.414 3.414V59.5h-2zm-3-3v-2h-4.828l3.414 3.414 1.414-1.414zm19.7 0l1.26 1.553 4.383-3.553h-5.643v2zm-3.7 3l-1.94-.485-1.453 5.81 4.653-3.772-1.26-1.553zm2.4-7.6h12v-4h-12v4zm10-2.019l-.2 21.1 4 .038.2-21.1-4-.038zm1.8 19.119h-53.7v4h53.7v-4zm-51.7 2V61h-4v10h4zm-1.257-8.143l8.5-3.4-1.485-3.714-8.5 3.4 1.485 3.714zm6.074-6.336l-2.5 3.9 3.367 2.158 2.5-3.9-3.367-2.158zm1.183 4.979V10h-4v51.5h4zm-3.69-50.432l2.4 3.8 3.381-2.136-2.4-3.8-3.382 2.136zm4.822.87l-8.4-3.3-1.463 3.723 8.4 3.3 1.463-3.723zM87.595 10.5V.5h-4v10h4zm-1.961-8l26-.5-.077-4-26 .5.077 4zm25.961-.5h26.7v-4h-26.7v4zm24.7-2v20.2h4V0h-4zm2 18.2h-12v4h12v-4zm-10.072 1.466l-2.3-8.3-3.855 1.068 2.3 8.3 3.855-1.068zm-5.399-6.145l3.6 2.6 2.342-3.242-3.6-2.6-2.342 3.242zm4.771-1.021h-18.5v4h18.5v-4zm-17.085 3.414l3-3-2.829-2.828-3 3 2.829 2.828zm-.415-4.414V31h4V11.5h-4zm3.415 18.086l-3-3-2.829 2.828 3 3 2.829-2.828zm-4.415.414h20.9v-4h-20.9v4zm18.9-2v14h4V28h-4zm2 12h-20.9v4h20.9v-4zm-19.381 3.302l3-3.5-3.037-2.604-3 3.5 3.037 2.604zm-.519-4.802v21h4v-21h-4zm3.415 19.586l-3-3-2.829 2.828 3 3 2.829-2.828zm-4.415.414h19.7v-4h-19.7v4zm18.441-3.553l-3.7 3 2.519 3.106 3.7-3-2.519-3.106zm-.5 5.038l2.4-9.6-3.881-.97-2.4 9.6 3.881.97zM224.415.5l-.036-2-1.964.035V.5h2zm28-.5h2v-2.036L252.379-2l.036 2zm0 10l.716 1.867 1.284-.492V10h-2zm-8.6 3.3l-1.512-1.309 2.228 3.176-.716-1.867zm4.5-5.2l1.927.536-3.439-1.845 1.512 1.309zm-17.5 62.9v2h1.519l.408-1.464-1.927-.536zm-19.3 0l-1.934.51.393 1.49h1.541v-2zm-12.3-46.6l.054-2-2.669-.071.681 2.581 1.934-.51zm3.7.1l1.928.53.678-2.46-2.552-.07-.054 2zm-12.8 46.5v2h1.524l.404-1.47-1.928-.53zm-19 0l-1.936.504.39 1.496h1.546v-2zm-15.9-61.1l1.777-.917-3.713 1.42 1.936-.503zm1.6 3.1l-.78 1.841 5.095 2.16-2.538-4.918-1.777.917zm-5.9-2.5h-2v1.325l1.22.517.78-1.842zm0-10l-.034-2-1.966.033V.5h2zm29.7-.5h2v-2.034L180.581-2l.034 2zm0 10l.905 1.784 1.095-.556V10h-2zm-6.9 3.5l-1.664-1.11-4.227 6.34 6.796-3.446-.905-1.784zm2.4-3.6l1.963-.38-.925-4.783-2.702 4.054 1.664 1.109zm8.3 42.9v2h2.424l-.461-2.38-1.963.38zm-4.2 0l-1.942-.479-.611 2.479h2.553v-2zm12.9-52.3l-.053-2-1.524.041-.365 1.48 1.942.479zm18.8-.5l1.944-.47-.38-1.572-1.617.043.053 1.999zm12.7 52.6l.047 2 2.479-.06-.582-2.41-1.944.47zm-4.2.1l-1.948-.455-.588 2.516 2.583-.062-.047-1.999zm10-42.8l1.827-.812-2.419-5.445-1.356 5.802 1.948.455zm1.6 3.6l-.734 1.86 4.547 1.795-1.986-4.467-1.827.812zm-7.6-3h-2v1.36l1.266.5.734-1.86zm.036-8l28-.5-.072-4-28 .5.072 4zM250.415 0v10h4V0h-4zm1.283 8.133l-8.6 3.3 1.433 3.734 8.6-3.3-1.433-3.734zm-6.371 6.476l4.5-5.2-3.024-2.618-4.5 5.2 3.024 2.618zm1.061-7.045l-17.5 62.9 3.854 1.072 17.5-62.9-3.854-1.072zM230.815 69h-19.3v4h19.3v-4zm-17.366 1.49l-12.3-46.6-3.868 1.02 12.3 46.6 3.868-1.02zM199.161 26.4l3.7.1.108-4-3.7-.1-.108 4zm1.826-2.43l-12.8 46.5 3.856 1.06 12.8-46.5-3.856-1.06zM190.115 69h-19v4h19v-4zm-17.065 1.496l-15.9-61.1-3.871 1.008 15.9 61.1 3.871-1.008zm-19.612-59.679l1.6 3.1 3.554-1.834-1.6-3.1-3.554 1.834zm4.157.341l-5.9-2.5-1.56 3.684 5.9 2.5 1.56-3.684zm-4.68-.658V.5h-4v10h4zm-1.966-8l29.7-.5-.068-4-29.7.5.068 4zM178.615 0v10h4V0h-4zm1.095 8.216l-6.9 3.5 1.81 3.568 6.9-3.5-1.81-3.568zm-4.331 6.393l2.4-3.6-3.328-2.218-2.4 3.6 3.328 2.218zm-1.228-4.33l8.3 42.9 3.927-.759-8.3-42.9-3.927.76zM184.415 50.8h-4.2v4h4.2v-4zm-2.258 2.479l12.9-52.3-3.884-.958-12.9 52.3 3.884.958zm11.011-50.78l18.8-.5-.106-3.998-18.8.5.106 3.998zM209.971.47l12.7 52.6 3.888-.938-12.7-52.6-3.888.938zm14.596 50.132l-4.2.1.095 3.998 4.2-.1-.095-3.998zm-2.205 2.554l10-42.8-3.895-.91-10 42.8 3.895.91zm6.225-42.443l1.6 3.6 3.655-1.624-1.6-3.6-3.655 1.624zm4.162.928l-7.6-3-1.468 3.72 7.6 3 1.468-3.72zm-6.334-1.14V.5h-4v10h4z"/></svg><svg viewBox="0 0 16 16" id="twitter" xmlns="http://www.w3.org/2000/svg"><g clip-path="url(#ua)"><path d="M14.356 4.742A6.547 6.547 0 0016 3.039a6.85 6.85 0 01-1.89.518 3.263 3.263 0 001.443-1.813 6.563 6.563 0 01-2.08.794A3.28 3.28 0 007.8 4.781c0 .26.022.51.076.748a9.287 9.287 0 01-6.761-3.432 3.308 3.308 0 00-.45 1.658c0 1.136.585 2.143 1.458 2.726A3.242 3.242 0 01.64 6.077v.036a3.296 3.296 0 002.628 3.224 3.261 3.261 0 01-.86.108c-.21 0-.422-.012-.62-.056a3.312 3.312 0 003.064 2.285 6.593 6.593 0 01-4.067 1.399c-.269 0-.527-.012-.785-.045A9.237 9.237 0 005.032 14.5c5.789 0 9.561-4.83 9.324-9.758z"/></g><defs><clipPath id="ua"><path d="M0 0h16v16H0z"/></clipPath></defs></svg><svg viewBox="0 0 16 16" id="user" xmlns="http://www.w3.org/2000/svg"><g clip-path="url(#va)"><path d="M7.885 7.707a3.73 3.73 0 002.725-1.129 3.729 3.729 0 001.129-2.725 3.73 3.73 0 00-1.13-2.724A3.73 3.73 0 007.886 0 3.73 3.73 0 005.16 1.129a3.729 3.729 0 00-1.129 2.724c0 1.06.38 1.976 1.13 2.725a3.73 3.73 0 002.724 1.13zm6.744 4.596a9.526 9.526 0 00-.13-1.01 7.979 7.979 0 00-.248-1.017 5.024 5.024 0 00-.418-.948 3.576 3.576 0 00-.63-.821 2.778 2.778 0 00-.905-.57 3.147 3.147 0 00-1.156-.208c-.163 0-.321.067-.626.265-.188.123-.408.264-.653.421-.21.134-.493.259-.844.372-.342.11-.69.167-1.032.167a3.35 3.35 0 01-1.033-.167 3.73 3.73 0 01-.844-.372 89.424 89.424 0 01-.653-.42c-.305-.2-.463-.266-.626-.266-.416 0-.805.07-1.155.209-.352.14-.657.33-.906.569a3.58 3.58 0 00-.63.82 5.03 5.03 0 00-.417.949c-.1.313-.184.654-.249 1.016a9.489 9.489 0 00-.13 1.012c-.02.306-.032.623-.032.944 0 .836.266 1.512.79 2.01.517.493 1.2.742 2.033.742h7.704c.832 0 1.516-.25 2.033-.742.524-.498.79-1.174.79-2.01 0-.322-.012-.64-.033-.945z"/></g><defs><clipPath id="va"><path d="M0 0h16v16H0z"/></clipPath></defs></svg></svg>